<?xml version="1.0" encoding="UTF-8" standalone="no"?>
<svg
   width="3195.53"
   height="520.3"
   version="1.1"
   id="svg8"
   sodipodi:docname="logo-black.svg"
   inkscape:version="1.2.2 (b0a8486541, 2022-12-01)"
   xmlns:inkscape="http://www.inkscape.org/namespaces/inkscape"
   xmlns:sodipodi="http://sodipodi.sourceforge.net/DTD/sodipodi-0.dtd"
   xmlns="http://www.w3.org/2000/svg"
   xmlns:svg="http://www.w3.org/2000/svg">
  <defs
     id="defs12" />
  <sodipodi:namedview
     id="namedview10"
     pagecolor="#ffffff"
     bordercolor="#000000"
     borderopacity="0.25"
     inkscape:showpageshadow="2"
     inkscape:pageopacity="0.0"
     inkscape:pagecheckerboard="0"
     inkscape:deskcolor="#d1d1d1"
     showgrid="false"
     inkscape:zoom="0.41307701"
     inkscape:cx="1336.3126"
     inkscape:cy="259.0316"
     inkscape:window-width="1920"
     inkscape:window-height="1000"
     inkscape:window-x="1920"
     inkscape:window-y="0"
     inkscape:window-maximized="1"
     inkscape:current-layer="svg8" />
  <path
     d="M194.71 504.81V159.63c0-8.11 3.54-11.8 11.33-11.8h69.39c4.96 0 10.62 3.69 10.62 11.8v25.81h10.62c14.87-25.81 44.61-40.57 82.85-40.57h9.91c79.31 0 109.04 44.99 109.04 124.65v235.29c0 8.11-5.66 11.8-9.91 11.8h-70.1c-7.08 0-11.33-3.69-11.33-11.8V278.37c0-31.72-16.29-48.68-41.78-48.68h-31.86c-27.62 0-47.44 16.96-47.44 49.42v225.7c0 8.11-5.67 11.8-10.62 11.8h-69.39c-7.79 0-11.33-3.69-11.33-11.8Zm380.24 0V12.11c0-8.11 3.54-11.8 11.33-11.8h68.68c7.08 0 11.33 3.69 11.33 11.8V288.7L789.5 158.15c5.67-6.64 11.33-10.33 19.12-10.33h70.81c9.21 0 19.12 11.06 5.67 24.34L766.14 296.81l132.41 201.36c6.37 8.85 2.12 18.44-9.91 18.44h-63.73c-10.62 0-18.41-3.69-24.78-13.28L705.96 359.5l-39.65 41.3v104c0 8.11-4.25 11.8-11.33 11.8H586.3c-7.79 0-11.33-3.69-11.33-11.8Zm608.94-109.89V159.63c0-8.11 5.66-11.8 9.91-11.8h70.1c7.08 0 11.33 3.69 11.33 11.8v226.44c0 31.72 16.29 48.68 41.78 48.68h32.57c26.91 0 46.73-16.96 46.73-49.42v-225.7c0-8.11 5.67-11.8 10.62-11.8h70.1c7.08 0 10.62 3.69 10.62 11.8v345.19c0 8.11-3.54 11.8-10.62 11.8h-70.1c-4.96 0-10.62-3.69-10.62-11.8v-25.81h-9.91c-15.58 25.81-45.32 40.57-83.55 40.57h-9.91c-79.31 0-109.04-44.99-109.04-124.65Zm479.36 89.24h-7.79v20.65c0 8.11-4.25 11.8-11.33 11.8h-68.68c-7.79 0-11.33-3.69-11.33-11.8V12.11c0-8.11 3.54-11.8 11.33-11.8h68.68c7.08 0 11.33 3.69 11.33 11.8v168.91h7.79c16.29-20.65 38.24-36.14 78.6-36.14h8.5c80.72 0 117.54 44.99 117.54 124.65v126.13c0 79.66-36.82 124.65-117.54 124.65h-8.5c-40.36 0-62.31-15.49-78.6-36.14Zm35.4-48.68h34.7c25.49 0 43.19-16.96 43.19-47.94v-109.9c0-30.98-17.7-47.94-43.19-47.94h-34.7c-25.49 0-43.19 16.96-43.19 48.68V386.8c0 31.72 17.7 48.68 43.19 48.68Zm434.77 69.33v-33.93h-8.5c-21.95 27.29-48.15 49.42-93.47 49.42h-6.37c-68.68 0-101.96-40.57-101.96-108.42v-23.6c0-65.64 35.4-94.41 111.17-94.41h99.13v-19.18c0-31.72-16.99-46.47-74.35-46.47-25.49 0-59.48 3.69-77.18 8.85-7.79 2.21-12.04-.74-13.45-8.85l-9.21-51.63c-2.12-5.9 1.42-11.8 7.08-14.01 23.37-8.85 63.02-17.7 111.17-17.7h18.41c91.34 0 128.87 47.94 128.87 125.39v234.55c0 8.11-4.25 11.8-11.33 11.8h-69.39c-7.08 0-10.62-3.69-10.62-11.8Zm-85.68-65.64h31.86c37.53 0 53.81-26.55 53.81-50.89v-26.55h-86.39c-21.24 0-34.7 5.16-34.7 31.72v14.75c0 23.6 14.16 30.98 35.4 30.98Zm281.82-45.73V231.91h-44.61c-8.5 0-12.04-3.69-12.04-12.54v-59.01c0-8.85 3.54-12.54 12.04-12.54h44.61V74.06c0-8.11 4.25-11.8 11.33-11.8h68.68c7.79 0 11.33 3.69 11.33 11.8v73.76h53.81c8.5 0 12.04 3.69 12.04 12.54v59.01c0 8.85-3.54 12.54-12.04 12.54h-53.81v163.74c0 30.24 12.75 41.3 39.65 41.3 14.87 0 19.83 6.64 19.83 19.18v37.62c0 18.44-10.62 26.55-46.03 26.55-94.17 0-104.8-53.84-104.8-126.86Zm209.59-2.21V273.95c0-78.92 38.94-129.08 129.58-129.08h44.61c91.34 0 129.58 50.16 129.58 129.08v117.28c0 78.92-38.24 129.08-129.58 129.08h-44.61c-90.63 0-129.58-50.16-129.58-129.08Zm133.83 44.25h36.11c25.49 0 42.48-14.01 42.48-45.73V275.42c0-31.72-16.99-45.73-42.48-45.73h-36.11c-24.78 0-42.49 14.01-42.49 45.73v114.33c0 31.72 17.7 45.73 42.49 45.73Zm239.32 69.33V159.63c0-8.11 3.54-11.8 11.33-11.8h69.39c4.96 0 10.62 3.69 10.62 11.8v25.81h10.62c14.87-25.08 43.19-40.57 81.43-40.57h5.66c70.1 0 94.18 36.88 94.18 109.9v22.87c0 7.38-4.25 12.54-9.91 12.54h-60.9c-7.79 0-11.33-5.16-11.33-12.54 0-30.24-14.16-47.94-44.61-47.94h-16.29c-29.03 0-48.86 16.96-48.86 49.42v225.7c0 8.11-5.67 11.8-10.62 11.8h-69.39c-7.79 0-11.33-3.69-11.33-11.8Z"
     style="fill:#000000"
     id="path2" />
  <path
     d="m1004.51 332.64-16.1-.12c-7.39 0-11.08-3.69-11.08-11.08V11.08c0-7.39 3.69-11.08 11.08-11.08h75.37c7.39 0 11.08 3.69 11.08 11.08l-.05 10.47c-28.66 6.98-50.98 36.19-52.77 72.61-1.43 29.25 10.74 55.75 29.99 70.74-14.34 9.76-24.88 26.23-27.52 45.96-2.88 21.48 4.28 41.84 17.55 55.29-13.39 5.88-25.59 17.89-32.53 33.73-4.91 11.2-6.44 22.61-5.03 32.74Z"
     style="fill:#000000;fill-rule:evenodd"
     id="path4" />
  <path
     d="M1027.79 307.54c-5.49 12.54-1.29 25.78 9.38 29.55 10.67 3.77 23.79-3.35 29.29-15.89 5.49-12.54 1.29-25.78-9.38-29.55-10.67-3.77-23.8 3.35-29.29 15.89Zm19.9-91.82c-3.67 19.42 6.57 37.64 22.85 40.68s32.47-10.26 36.14-29.68c3.67-19.42-6.57-37.64-22.85-40.68-16.28-3.03-32.47 10.26-36.14 29.68Zm-4.09-114.44c-1.3 26.57 15.76 49.42 38.09 51 22.32 1.58 41.51-18.71 42.81-45.28 1.3-26.57-15.76-49.42-38.09-51-22.32-1.58-41.51 18.71-42.81 45.28Zm-30.05 317.38c-28.3 10.24-44.06 40.2-35.16 66.86 8.9 26.66 39.1 39.98 67.41 29.74 28.3-10.24 44.06-40.2 35.16-66.86-8.9-26.66-39.1-39.98-67.41-29.74ZM89.83 147.79c7.39 0 11.08 3.69 11.08 11.08v347.3c0 7.39-3.69 11.08-11.08 11.08H16.68c-7.39 0-11.08-3.69-11.08-11.08v-347.3c0-7.39 3.69-11.08 11.08-11.08h73.16ZM38.92 17.56C11.18 25.94-5.51 53.93 1.67 80.02c7.18 26.09 35.53 40.46 63.27 32.07 27.74-8.39 44.43-36.38 37.25-62.46-7.18-26.09-35.53-40.46-63.27-32.07Z"
     style="fill:#000000;fill-rule:evenodd"
     id="path6" />
</svg>
