<svg xmlns="http://www.w3.org/2000/svg" width="422" height="531"><path d="M302.36 69.53H58.02c-36.33 0-51.84 10.1-51.84 54.53v288.76h356.75V126.11c0-45.17-21.56-56.58-60.57-56.58Z" style="fill:#e2dcfe"/><path d="M351.52 131.3v281.46H18.21V134.78c0-1.94 1.6-3.48 3.48-3.37 7.47.28 26.46.97 51.5 1.48 4.22.11 8.61.17 13.12.28 6.84.11 14.03.23 21.44.34 42.38.51 92.68.28 134.32-2.17 91.31-5.47 109.45-.06 109.45-.06Z" style="fill:#9187ff"/><path d="M351.52 131.3c-98.21 11.69-242.28 2.28-243.71 2.17 42.38.51 92.68.28 134.32-2.17 91.25-5.42 109.39 0 109.39 0Z" style="fill:#b8aeff"/><path d="M268.76 83.5c-.57 7.3 40.61 7.76 41.75 1.88 1.14-5.88-41.18-9.18-41.75-1.88Zm71.64 17.55c2.47-3.07 1.03-8.32-3.22-11.74-4.25-3.41-9.69-3.7-12.16-.63s-1.03 8.32 3.22 11.74 9.69 3.7 12.16.63Z" style="fill:#f7f7f7"/><path d="M90.42 404.83c34.96-50.7 69.3-3.48 69.3-4.05 25.04-47.17 45.46-4.05 45.46-4.05 39.64-51.27 91.48-4.68 91.48-4.68-77.45 54.7-206.81 13.35-206.24 12.77Z" style="fill:#4f40b3"/><path d="M163.25 327.67s-10.04 1.71-4.39 9.35m26.12-13.06s-8.15 2.28-5.82 9.07" style="fill:none;stroke:#ffc32b;stroke-linecap:round;stroke-linejoin:round;stroke-width:2.28px"/><path d="m47.87 360.18 240.11-46.03c1.65-.34 3.02-1.6 3.36-3.31l1.54-6.79-17.17 4.22c-.4.12-.86.29-1.2.51l-2.05 1.25c-2.45 1.48-5.13 2.51-7.93 2.97l-135.34 23.38-25.95 4.22c-2.91.46-5.93.06-8.56-1.26L92 338.03c-2.68-1.31-5.93-.91-8.27 1.03l-7.02 5.87c-.63.57-1.43.86-2.28.97l-28.23 3.14c-2.45.29-4.16 2.51-3.76 4.96l.4 2.62c.34 2.4 2.62 3.99 5.02 3.54Z" style="fill:#4f40b3"/><path d="m162.22 307.48 2.11 20.02-.97-.97c4.22.51 17.68 1.14 16.88 7.36-.23 1.43-1.08 2.4-2 3.25-.8.7-1.68 1.29-2.62 1.77-.56.28-1.25.06-1.54-.5-.22-.46-.13-1.01.23-1.37 1.08-1.14 2.51-2.17 2.91-3.65-.17-1.88-6.67-3.08-8.44-3.54l-5.76-1.14c-.51-.05-.91-.46-.97-.97l-3.65-19.79c-.29-2.51 3.48-3.08 3.82-.46Z" style="fill:#ffc32b"/><path d="M163.99 326.81c3.65 2.57 7.47 8.21 3.31 12.15-.97 1.2-5.76 2.85-5.65.29.06-.57.51-.91 1.03-.97 1.71-.4 3.59-1.88 3.31-3.82-.29-2.17-2.05-4.22-3.54-5.93-.91-1.08.46-2.57 1.54-1.71Zm20.13-21.85 2 18.82-.97-.97c4.33.4 15.85.97 15.63 7.07-.11 1.31-.74 2.34-1.48 3.19-.65.77-1.42 1.42-2.28 1.94-.51.34-1.26.23-1.6-.34-.29-.46-.23-1.03.11-1.37.85-1.03 2.17-2.45 2.28-3.65 0-.51-.23-.74-.63-1.08-.6-.46-1.28-.83-2-1.08-3.19-1.26-6.84-1.77-10.32-2.4-.51-.06-.91-.46-.97-.97l-3.42-18.65c-.46-2.51 3.25-3.08 3.65-.51Z" style="fill:#ffc32b"/><path d="M185.49 322.93c1.88.97 3.65 2.11 5.02 3.82 1.65 2.17 2.11 5.02.51 7.36a6.27 6.27 0 0 1-2.22 2c-.34.23-.74.29-1.08.46-.59.23-1.25-.07-1.47-.65 0 0 0-.02-.01-.03-.23-.63.11-1.31.74-1.48 1.82-.8 2.96-2.8 2.28-4.73-.8-2.11-3.02-3.59-4.9-4.73-1.26-.86-.11-2.68 1.14-2Z" style="fill:#ffc32b"/><path d="M147.96 298.58c4.68 18.88 21.1 11.98 22.87 5.53l-22.87-5.53Zm25.32 5.99c4.96 11.12 19.22 6.9 17.62-2.17l-17.62 2.17Z" style="fill:#de4040"/><path d="M243.72 245.99c-3.88 11.12-11.12 20.13-20.36 26.46-11.92 8.21-27.15 11.86-42.6 9.64-4.06-.58-8.05-1.56-11.92-2.91-17.28-5.99-30.23-18.65-36.62-33.65-5.13-12.15-6.05-25.84-1.54-38.9 4.73-13.63 14.6-24.18 26.92-30.4 14.09-7.13 31.37-8.61 48.02-2.85 31.2 10.95 48.25 43.4 38.1 72.61Z" style="fill:#f7f7f7"/><path d="M243.72 245.99c-3.88 11.12-11.12 20.13-20.36 26.46-11.92 8.21-27.15 11.86-42.6 9.64-4.06-.58-8.05-1.56-11.92-2.91-17.28-5.99-30.23-18.65-36.62-33.65 24.18-9.24 74.26-5.88 111.5.46Z" style="fill:#e2dcfe"/><path d="M209.1 278.39c-.57 1.48-1.08 2.97-1.65 4.33-2 4.79-4.16 8.84-6.73 12.21-6.73 8.73-15.86 12.26-29.89 9.18-20.93-4.56-47.34-11.52-51.56-14.71-4.22-3.19-15.57-18.02-9.7-17.85 5.88.17 18.19 8.21 18.19 8.21 10.61-2.62 17.17-4.16 20.82-5.88 1.14-.57 2.05-1.14 2.62-1.77.91-.91 1.26-2 1.2-3.31-.34-5.08-5.19-25.1 2.57-37.93 7.36-12.15 21.85-18.54 42.43-10.95 24.41 9.01 18.99 38.21 11.69 58.46Z" style="fill:#ff705e"/><path d="M207.45 282.78c-2 4.79-4.16 8.84-6.73 12.21-16.71 3.02-43.69-2.79-52.07-21.04 1.14-.57 2.05-1.14 2.62-1.77 7.01 5.19 24.98 15.23 55.21 10.61h.97Z" style="fill:#de4040"/><path d="M151.73 271.6c31.03 13.06 12.83 32.11-7.07 26.18s-35.87-8.84-16.94-16.65" style="fill:none;stroke:#de4040;stroke-linecap:round;stroke-miterlimit:10;stroke-width:2.78px"/><path d="m211.67 278.68-3.08 5.93a5.234 5.234 0 0 1-3.76 2.79c-40.89 7.13-59.71-13.74-55.55-20.87 9.87 6.62 17.45 13.97 31.54 15.63 7.87.91 19.68-.97 30.86-3.48Z" style="fill:#4f40b3"/><path d="M145.45 276.68c-14.54 9.07 6.67 13.23-5.53 19.68" style="fill:none;stroke:#de4040;stroke-linecap:round;stroke-miterlimit:10;stroke-width:2.78px"/><path d="M205.63 239.83c-2.17-7.81-9.64-8.21-10.1.57-.06 1.03-1.54 1.08-1.71.11-.91-4.11 1.26-9.35 6.04-9.47 4.51-.17 7.53 4.51 7.47 8.55.06.97-1.43 1.2-1.71.23Zm-18.65 1.54c-.91-2.11-2.05-4.05-3.82-5.42-3.31-2.68-8.27-1.94-10.32 1.88-1.14 1.94-1.43 4.28-1.54 6.5 0 .51-.4.91-.91.86-.4 0-.74-.29-.8-.68-.29-1.25-.46-2.62-.4-3.99.29-8.44 9.64-12.78 16.03-6.96 2.11 2 3.25 4.73 3.54 7.36.06 1.03-1.37 1.37-1.77.46Z" style="fill:#282828"/><path d="M186.8 217.19c-14.2-12.32-19.51-8.04-13.52-1.43-23.5-8.67-25.49 3.25-13.86 9.47l27.38-8.04Z" style="fill:#ff705e"/><path d="M180.76 282.15c-4.06-.58-8.05-1.56-11.92-2.91-17.28-5.99-30.23-18.65-36.62-33.65 32.85 5.3 38.1 8.78 48.54 36.56Zm-23.21-105.86c14.09-7.13 31.37-8.61 48.02-2.85 12.6 23.5-23.44 14.09-48.02 2.85Z" style="fill:#6e5de8"/><path d="M237.44 224.14c3.53-1.52 4.45-7.27 2.05-12.86s-7.21-8.88-10.74-7.37c-3.53 1.52-4.45 7.27-2.05 12.86 2.4 5.59 7.21 8.88 10.74 7.37Zm-15.52-26.2c1.44-1.41 1.06-4.12-.84-6.06s-4.6-2.35-6.04-.94c-1.44 1.41-1.06 4.12.84 6.06 1.9 1.93 4.6 2.35 6.04.94Z" style="fill:#e2dcfe"/><path d="M243.72 245.99c-3.88 11.12-11.12 20.13-20.36 26.46 0-.4-1.03-20.08 20.36-26.46Z" style="fill:#6e5de8"/><path d="M184.75 251.87c-7.81 14.94 1.88 37.93 20.08 10.04l-20.08-10.04Z" style="fill:#de4040"/><path d="M200.61 242.69c5.93 2.17 12.66 10.21 11.81 13.69-.86 3.42-5.3 6.96-20.88 10.32-.91.17-1.82.17-2.68-.17-10.67-3.93-3.37-29.37 11.75-23.84Z" style="fill:#ffc32b"/><path d="M187.15 250.73c1.31 3.31 3.54 5.82 6.96 6.5 3.48.74 7.13.17 10.55-.63.63-.17.97.74.4 1.08-5.53 2.91-14.15 3.82-17.79-2.4-.74-1.31-1.14-2.85-1.26-4.33 0-.34.23-.57.51-.63.29.06.51.17.63.4Zm12.46-.78c.38-1.56-1.01-3.25-3.12-3.77-2.11-.52-4.13.32-4.52 1.88-.38 1.56 1.01 3.25 3.13 3.77 2.11.52 4.13-.32 4.52-1.88Z" style="fill:#8a5218"/><path d="M337.43 236.76v136.31l-45.11-27.26c-9.92-5.99-14.83-17.68-12.2-28.97l10.32-43.8c1.14-4.73 3.19-9.12 6.05-12.95 3.42-4.51 7.93-8.21 13.23-10.61l27.72-12.72Z" style="fill:#aea1ed"/><path d="M337.43 236.76v86.75s-40.78-15.63-40.95-63.37c3.42-4.51 7.93-8.21 13.23-10.61l27.72-12.77ZM48.9 390.92a22.502 22.502 0 0 1-9.98 6.9l-20.7 7.3V267.04l11.64 3.48c8.44 2.51 14.54 9.92 15.51 18.71l.17 1.65 8.21 78.25.46 4.51c.63 6.39-1.37 12.6-5.3 17.28Z" style="fill:#cec5fc"/><path d="M53.69 369.13s-44.43-33.02-8.21-78.25l8.21 78.25Zm-4.79 21.79a22.502 22.502 0 0 1-9.98 6.9l-20.7 7.3v-36.05c16.2 4.62 25.55 14.2 30.68 21.84Zm264.42-110.8c3.64-1.33 5.13-6.39 3.33-11.3-1.8-4.91-6.2-7.81-9.84-6.48-3.64 1.33-5.13 6.39-3.33 11.3s6.2 7.81 9.84 6.48Z" style="fill:#aea1ed"/><path d="M259.86 189.25c2.49 0 4.51-2.02 4.51-4.5s-2.02-4.51-4.51-4.51c-2.49 0-4.51 2.02-4.51 4.5s2.02 4.51 4.5 4.51Zm-17.74 150.63a4.511 4.511 0 0 0 0-9.02 4.511 4.511 0 0 0 0 9.02Zm-18.37-172.24c4.41 0 7.98-3.57 7.98-7.98s-3.58-7.99-7.99-7.99-7.99 3.58-7.99 7.99 3.58 7.99 7.99 7.99ZM71.87 326.31c4.41 0 7.99-3.58 7.99-7.99s-3.58-7.99-7.99-7.99-7.99 3.58-7.99 7.99 3.58 7.99 7.99 7.99Zm22.24-110.65c3.28 0 5.93-2.66 5.93-5.93s-2.66-5.93-5.93-5.93c-3.28.04-5.9 2.73-5.85 6.01a5.923 5.923 0 0 0 5.85 5.85Zm-35.82 33.48c2.49.02 4.52-1.99 4.54-4.47s-1.99-4.52-4.47-4.54h-.06c-2.49 0-4.5 2.02-4.5 4.51 0 2.48 2.02 4.5 4.5 4.5Zm200.53 40.27c2.71 0 4.91-2.19 4.91-4.9 0-2.71-2.19-4.91-4.9-4.91-2.71 0-4.9 2.2-4.9 4.91s2.2 4.9 4.9 4.9Zm-38.21 65.88c2.05.03 3.73-1.6 3.77-3.65s-1.6-3.73-3.65-3.77h-.12a3.706 3.706 0 0 0 0 7.41Zm-101.81 9.07c2.49 0 4.51-2.01 4.51-4.5s-2.01-4.51-4.5-4.51h-.01c-2.49 0-4.5 2.02-4.5 4.51 0 2.48 2.02 4.5 4.5 4.5Zm203.33-191.41c2.77 0 5.02-2.25 5.02-5.02s-2.25-5.02-5.02-5.02-5.02 2.25-5.02 5.02 2.25 5.02 5.02 5.02ZM71.86 170.9c1.8 0 3.25-1.46 3.25-3.25s-1.46-3.25-3.25-3.25c-1.8 0-3.25 1.46-3.25 3.25s1.46 3.25 3.25 3.25Z" style="fill:#c5bdff"/><path d="M359.9 238.64h45.68c8.38 0 15.23 6.79 15.23 15.23v15.68c0 8.38-6.79 15.23-15.23 15.23h-54.75" style="fill:none;stroke:#6e7191;stroke-miterlimit:10;stroke-width:2.85px"/><path d="M363.72 258.09h28.4c6.48 0 11.74 5.24 11.75 11.71v45.89c0 4.51-2.57 8.61-6.62 10.55l-24.92 12.09" style="fill:none;stroke:#4f516e;stroke-miterlimit:10;stroke-width:2.85px"/><path d="M369.94 214.51v48.08s20.59-24.52 0-48.08Z" style="fill:#de4040"/><path d="m370.85 314.89 7.41 4.96a8.246 8.246 0 0 1 3.65 6.84v26.64c0 2.28-.91 4.45-2.57 5.99l-8.44 7.98v-52.42h-.06Z" style="fill:#6e7191"/><path d="M40.74 461.47c6.96 0 12.6-5.64 12.6-12.6s-5.64-12.61-12.6-12.61-12.6 5.64-12.6 12.61 5.64 12.6 12.6 12.6Zm287.17 0c6.96 0 12.61-5.64 12.61-12.6s-5.64-12.61-12.61-12.61-12.6 5.64-12.6 12.61 5.64 12.6 12.6 12.6Z" style="fill:#40425e"/><path d="M370.85 181.89v238.8c0 .97-.06 1.88-.11 2.79-.8 14.03-6.33 23.44-20.36 26.75-3.71.86-8.04 1.31-13.06 1.31H31.44c-25.04 0-29.66-9.87-30.46-25.1-.06-1.14-.11-2.28-.11-3.48-.06-2.62-.06-5.36-.06-8.27 0-11.52 18.59-28.57 111.67-11.86 2.62.46 5.3.91 7.93 1.37 3.88.63 7.81 1.2 11.63 1.71 52.47 6.96 102.21 2.91 137.85-23.38a31.444 31.444 0 0 1-6.9-8.04c-9.47-15.86-3.36-36.96 13.69-47.11 11.12-6.67 24.12-7.01 34.45-2.05 17.4-46.71 17.17-103.75 32.57-132.95 8.21-15.4 27.15-16.6 27.15-10.5Z" style="fill:#ff705e"/><path d="M25.97 440.03c2.36 0 4.28-1.92 4.28-4.28s-1.92-4.28-4.28-4.28c-2.36 0-4.28 1.92-4.28 4.28s1.92 4.28 4.28 4.28Z" style="fill:#f3ff73"/><path d="M355.37 239.09c3.72-2.8 4.62-7.89 2.01-11.37-2.62-3.47-7.76-4.01-11.48-1.21-3.72 2.8-4.62 7.89-2.01 11.37 2.61 3.47 7.75 4.01 11.48 1.21Z" style="fill:#ffbfb3"/><path d="m353.06 224.32-4.79 16.88" style="fill:none;stroke:#de4040;stroke-linecap:round;stroke-linejoin:round;stroke-width:3.06px"/><path d="M351.37 262.07c3.05-.62 5.06-3.43 4.48-6.27-.58-2.84-3.53-4.63-6.58-4.01-3.05.62-5.06 3.43-4.48 6.27s3.53 4.63 6.58 4.01Z" style="fill:#de4040"/><path d="M351.09 279.27c2.25-.46 3.73-2.54 3.3-4.63-.43-2.1-2.6-3.43-4.86-2.97-2.25.46-3.73 2.54-3.3 4.63.43 2.1 2.6 3.43 4.86 2.96Zm0 11.07c2.25-.46 3.73-2.54 3.3-4.63-.43-2.1-2.6-3.43-4.86-2.96-2.25.46-3.73 2.54-3.3 4.63.43 2.1 2.6 3.43 4.86 2.96Zm.2 23.08c2.81-.57 4.65-3.17 4.11-5.79s-3.25-4.28-6.06-3.71c-2.81.57-4.65 3.17-4.11 5.79s3.25 4.28 6.06 3.71Z" style="fill:#121226"/><path d="M352.16 317.66c5.37-1.1 8.9-6.02 7.88-10.98-1.02-4.97-6.19-8.11-11.56-7.01-5.37 1.1-8.9 6.02-7.88 10.99 1.02 4.97 6.19 8.11 11.56 7.01Z" style="fill:none;stroke:#de4040;stroke-miterlimit:10;stroke-width:2.78px"/><path d="M320.09 365.82c6.62 29.66 34.45-.57 50.82 18.02v12.43c-35.19 11.75-59.03-9.13-60.57-18.71l9.75-11.75Zm-203.44 85.72H89.22s-.17-35.42 34.45-47.28c3.88.63 7.81 1.2 11.63 1.71 2.85 22.76-28.18 13.97-18.65 45.57Z" style="fill:#ffbfb3;isolation:isolate;opacity:.5"/><path d="M320.89 411.28c1.8 0 3.25-1.46 3.25-3.25s-1.46-3.25-3.25-3.25c-1.8-.03-3.28 1.4-3.31 3.19s1.4 3.28 3.19 3.31h.11Zm11.52 0c1.8 0 3.25-1.46 3.25-3.25s-1.46-3.25-3.25-3.25-3.25 1.46-3.25 3.25 1.46 3.25 3.25 3.25Zm11.58 0c1.8 0 3.25-1.46 3.25-3.25s-1.46-3.25-3.25-3.25-3.25 1.46-3.25 3.25 1.46 3.25 3.25 3.25Zm-11.58-18.59c1.8 0 3.25-1.46 3.25-3.25s-1.46-3.25-3.25-3.25-3.25 1.46-3.25 3.25 1.46 3.25 3.25 3.25Zm11.58 0c1.8 0 3.25-1.46 3.25-3.25s-1.46-3.25-3.25-3.25-3.25 1.46-3.25 3.25 1.46 3.25 3.25 3.25Zm11.52 18.59c1.8 0 3.25-1.46 3.25-3.25s-1.46-3.25-3.25-3.25-3.25 1.46-3.25 3.25 1.46 3.25 3.25 3.25Zm-28.86-9.3c1.8 0 3.25-1.46 3.25-3.25s-1.46-3.25-3.25-3.25-3.25 1.46-3.25 3.25 1.46 3.25 3.25 3.25Zm11.58 0c1.8 0 3.25-1.46 3.25-3.25s-1.46-3.25-3.25-3.25-3.25 1.46-3.25 3.25 1.46 3.25 3.25 3.25Zm0-18.31c1.8 0 3.25-1.46 3.25-3.25s-1.46-3.25-3.25-3.25c-1.8-.03-3.28 1.4-3.31 3.19s1.4 3.28 3.19 3.31h.11Zm11.52 18.31c1.8 0 3.25-1.46 3.25-3.25s-1.46-3.25-3.25-3.25-3.25 1.46-3.25 3.25 1.46 3.25 3.25 3.25Z" style="fill:#121226"/><path d="M301.73 381.83c14.73-3.25 24.23-16.98 21.21-30.67-3.02-13.69-17.41-22.15-32.14-18.9s-24.23 16.98-21.21 30.67c3.02 13.69 17.41 22.15 32.14 18.9Z" style="fill:#f7f7f7"/><path d="M302 383.06c15.44-3.41 25.39-17.81 22.22-32.18-3.17-14.36-18.26-23.25-33.7-19.84-15.44 3.41-25.39 17.81-22.22 32.18 3.17 14.36 18.26 23.25 33.7 19.84Z" style="fill:none;stroke:#de4040;stroke-linecap:round;stroke-linejoin:round;stroke-width:3.06px"/><path d="M298.15 365.63c5.08-1.12 8.34-5.87 7.3-10.6s-6.01-7.67-11.08-6.55c-5.08 1.12-8.34 5.87-7.3 10.6 1.05 4.74 6.01 7.67 11.08 6.55Z" style="fill:none;stroke:#a4a6bd;stroke-miterlimit:10;stroke-width:2.53px"/><path d="M297.17 361.17c2.43-.54 3.99-2.82 3.49-5.09-.5-2.28-2.88-3.69-5.31-3.15s-3.99 2.82-3.49 5.09c.5 2.28 2.88 3.69 5.31 3.15Z" style="fill:#de4040"/><path d="M316.84 359.96c1.39-.3 2.28-1.58 2-2.84s-1.63-2.04-3.01-1.73c-1.38.31-2.28 1.58-2 2.84.28 1.26 1.62 2.04 3.01 1.73Zm-4.45-13.34c1.38-.3 2.28-1.58 2-2.84s-1.63-2.04-3.01-1.73c-1.38.31-2.28 1.58-2 2.84.28 1.26 1.62 2.04 3.01 1.73Zm-12.49-6.96c1.38-.31 2.28-1.58 2-2.84-.28-1.26-1.63-2.04-3.01-1.73-1.39.3-2.28 1.58-2 2.84s1.63 2.04 3.01 1.73Zm-14.71 3.77c1.38-.3 2.28-1.58 2-2.84-.28-1.26-1.62-2.04-3.01-1.73-1.38.3-2.28 1.58-2 2.84s1.63 2.04 3.01 1.73Zm-7.64 11.11c1.38-.31 2.28-1.58 2-2.84-.28-1.26-1.63-2.04-3.01-1.73-1.38.3-2.28 1.58-2 2.84.28 1.26 1.63 2.04 3.01 1.73Zm1.37 13.01c1.38-.31 2.28-1.58 2-2.84-.28-1.26-1.63-2.04-3.01-1.73-1.38.3-2.28 1.58-2 2.84s1.63 2.04 3.01 1.73Zm8.95 8.78c1.39-.3 2.28-1.58 2-2.84s-1.63-2.04-3.01-1.73c-1.38.3-2.28 1.58-2 2.84.28 1.26 1.62 2.04 3.01 1.73Z" style="fill:#6e7191"/><path d="m292.03 337.71 4.28 19.33" style="fill:none;stroke:#de4040;stroke-linecap:round;stroke-miterlimit:10;stroke-width:2.78px"/><path d="M370.85 420.69c0 .97-.06 1.88-.11 2.79H8.46c-2.79 0-5.47 1.08-7.47 3.02-.06-1.14-.11-2.28-.11-3.48 2.22-1.48 4.85-2.34 7.64-2.34h362.34Z" style="fill:#de4040"/><path d="m250.97 422.91-.29.57-14.6 28.06h-3.48l14.6-28.06 1.03-2c.23-.39.6-.67 1.03-.8.22-.06.46-.06.68 0 .12 0 .23.06.4.11.68.4.97 1.31.63 2.11Zm15.8 0-.29.57-14.6 28.06h-3.48l14.6-28.06 1.03-2c.23-.39.6-.67 1.03-.8.22-.06.46-.06.68 0 .11 0 .23.06.34.11.8.4 1.08 1.31.68 2.11Zm15.8 0-.29.57-14.6 28.06h-3.48l14.6-28.06 1.03-2c.23-.39.6-.67 1.03-.8.22-.06.46-.06.68 0 .11 0 .23.06.34.11.8.4 1.08 1.31.68 2.11Zm-78.88 28.63H37.37c70.49-20.36 135.97-8.16 166.31 0Z" style="fill:#de4040"/><path d="M350.38 450.23c-3.71.86-8.04 1.31-13.06 1.31H234.43c57.55-22.3 97.3-10.44 115.95-1.31Zm20.48-268.35c1.65 39.35 2.17 79.39 2.28 118.8.11 39.41-.23 79.39-2.28 118.8-2.05-39.41-2.39-79.39-2.28-118.8.17-39.41.63-79.45 2.28-118.8Z" style="fill:#de4040"/><path d="M370.85 181.89c-.57-3.76-6.27-2.96-8.9-2.39-3.36.8-6.5 2.39-9.18 4.45-2.68 2.05-5.02 4.62-6.73 7.58-1.14 2.05-2.39 4.79-3.31 7.01-2.91 7.36-4.9 15.06-6.62 22.81-6.67 31.08-9.75 64.11-19.85 94.39-1.14 3.42-2.39 6.79-3.65 10.15-.29.8-1.2 1.14-1.94.8-7.36-3.31-15.86-3.88-23.61-1.71-24.98 6.45-36.84 38.55-16.14 56.58.68.57.68 1.71-.06 2.23-9.58 7.13-20.3 12.66-31.54 16.71-33.76 12.09-70.55 11.64-105.68 7.19-17.45-2.28-34.96-6.16-52.47-8.16-18.88-2.17-38.16-3.76-56.98-.74-4.22.68-8.61 1.83-12.55 3.54-5.19 2.28-10.49 6.39-10.72 12.49-.17-3.02 1.14-5.93 3.02-8.21 16.88-18.48 71.86-10.61 95.13-7.24 17.34 2.8 34.9 5.99 52.47 7.24 40.32 3.08 84.01-.63 117.66-25.04l-.06 2.23c-10.55-8.33-14.6-23.27-10.49-35.93 6.5-21.73 32.79-33.99 53.27-23.61l-1.94.8c4.62-13.4 7.93-27.21 10.72-41.18 5.93-27.89 7.87-57.04 18.08-83.9 1.37-3.36 2.91-6.73 4.85-9.87 3.02-4.73 7.58-8.44 12.77-10.49 3.42-1.31 7.24-2.05 10.89-1.2 1.65.17 3.71 1.48 3.54 3.48Z" style="fill:#ffbfb3"/></svg>