<svg xmlns="http://www.w3.org/2000/svg" width="422" height="531"><path d="M302.36 69.53H58.02c-36.33 0-51.84 10.1-51.84 54.53v288.76h356.75V126.11c0-45.06-21.56-56.58-60.57-56.58Z" style="fill:#e2dcfe"/><path d="M351.52 131.3v281.52H18.21V134.78c0-1.94 1.6-3.48 3.48-3.37 7.47.28 26.46.97 51.5 1.48 4.22.11 8.61.17 13.12.28 6.84.11 14.03.23 21.44.34 42.38.51 92.68.29 134.32-2.17 91.31-5.47 109.45-.06 109.45-.06Z" style="fill:#9187ff"/><path d="M351.52 131.3c-98.21 11.69-242.28 2.28-243.71 2.17 42.38.51 92.68.28 134.32-2.17 91.25-5.42 109.39 0 109.39 0Z" style="fill:#b8aeff"/><path d="M268.76 83.5c-.57 7.3 40.61 7.76 41.75 1.88 1.2-5.88-41.18-9.18-41.75-1.88Zm71.64 17.54c2.47-3.07 1.03-8.32-3.22-11.74s-9.69-3.7-12.16-.63c-2.47 3.07-1.03 8.32 3.22 11.74s9.69 3.7 12.16.63Z" style="fill:#f7f7f7"/><path d="M100.11 172.71 73.87 330.75c-.11.68 0 1.31.34 1.88l7.36 12.03c.68 1.14 1.82 1.94 3.19 2.22l151.83 29.37c2.17.4 4.45 0 6.33-1.14l7.53-4.62a8.824 8.824 0 0 0 4.11-5.99l28.57-157.41c.4-2.22-.06-4.56-1.31-6.44l-7.64-11.86a2.697 2.697 0 0 0-1.83-1.2l-156.22-27.26c-.8-.11-1.6.06-2.22.57L101.13 171c-.57.4-.91 1.03-1.03 1.71Z" style="fill:#3853ff"/><path d="M272.01 215.82c-23.67 16.77-5.99 32.97-5.99 32.97-17.68 14.83-6.33 33.31-6.33 33.31l12.32-66.27ZM95.89 348.99c20.65-11.75 33.65 6.5 33.65 6.5l-33.65-6.5Z" style="fill:#80acff"/><path d="m107.47 187.02-22.07 133c-.56 3.39.1 6.87 1.88 9.81l2 3.25c2.11 3.42 5.53 5.82 9.47 6.56l129.47 25.04c3.54.68 7.13 0 10.21-1.83l2.22-1.37c3.48-2.11 5.87-5.65 6.62-9.64l24.7-135.97c.63-3.6-.12-7.31-2.11-10.38l-2.74-4.22a14.315 14.315 0 0 0-9.52-6.27l-129.92-22.64c-3.99-.68-8.16.34-11.35 2.85l-3.71 2.97c-2.74 2.17-4.56 5.36-5.13 8.84Z" style="fill:none;stroke:#2731d4;stroke-miterlimit:10;stroke-width:2.85px"/><path d="m222.74 256.37 16.77 2.68c3.3.52 6.46-1.55 7.3-4.79l5.87-23.67m-44.54 2.62 2.91-12.38c.5-2.15 2.07-3.9 4.16-4.62l26.46-9.24m-45.8 22.98 5.76-28.57m-18.37 26.52 1.83-12.55c.29-1.83-.29-3.71-1.48-5.13l-8.9-10.55m-4.56 25.89 5.59-31.48m-18.02 28.57 1.82-11.07c.58-3.42-1.67-6.68-5.08-7.36L143.74 202c-1.82-.4-3.37-1.48-4.28-3.08l-8.1-13.97m7.3 50.3-11.52-1.94c-2.62-.46-4.68-2.4-5.25-4.96l-5.36-24.58m19.62 44.54-27.09-5.25m25.84 19.05-16.82-2.85m13.23 14.66-15.51-2.4c-2.05-.34-4.16.4-5.59 1.88L100 283.84m28.86 2.96-8.56-1.31c-3.54-.51-6.79 1.88-7.36 5.36l-3.88 24.64m33.25-6.62-1.6 9.58c-.34 2-1.6 3.71-3.37 4.68l-15.46 8.1m33.54-20.7-6.62 29.6m19.62-27.21-2.05 10.84c-.4 2.28-2.05 4.16-4.22 4.91l-11.69 4.05m30.74-17.05-2.22 13.92c-.17 1.08-.63 2.17-1.31 3.02l-8.27 10.38m24.81-25.32-5.76 30.74m24.92-40.67 13 2.51c2 .4 3.71 1.71 4.62 3.54l5.42 11.18c.63 1.33.79 2.84.46 4.28l-4.45 19.11c-.8 3.36-4.05 5.53-7.47 4.9l-9.3-1.71m2.22-69.35 19.96 4.39c1.67.35 3.13 1.36 4.05 2.79l6.96 10.78m-33.08-5.42 19.05 3.59m-14.2-29.37 25.27 4.39" style="fill:none;stroke:#2731d4;stroke-miterlimit:10;stroke-width:2.85px"/><path d="M252.85 232.59c2.49 0 4.51-2.01 4.51-4.5s-2.01-4.51-4.5-4.51h-.01c-2.49 0-4.5 2.02-4.5 4.51 0 2.48 2.02 4.5 4.5 4.5Zm-51.22-26.69c2.49 0 4.51-2.02 4.51-4.5a4.511 4.511 0 1 0-4.52 4.51Zm-25.89-9.01a4.511 4.511 0 0 0 0-9.02 4.511 4.511 0 0 0 0 9.02Zm-44.32-9.01c2.49 0 4.51-2.02 4.51-4.5s-2.02-4.51-4.5-4.51c-2.49 0-4.51 2.02-4.51 4.5 0 2.49 2.02 4.51 4.51 4.51Zm-14.89 18.02a4.511 4.511 0 0 0 0-9.02 4.511 4.511 0 0 0-.01 9.02Zm-7.47 41.69a4.511 4.511 0 0 0 0-9.02c-2.49 0-4.5 2.03-4.5 4.52 0 2.48 2.02 4.49 4.5 4.5Zm6.62 16.03c2.49 0 4.51-2.01 4.51-4.5s-2.01-4.51-4.5-4.51h-.01c-2.49 0-4.5 2.02-4.5 4.51 0 2.48 2.02 4.5 4.5 4.5Zm-16.77 26.35c2.49 0 4.51-2.01 4.51-4.5s-2.01-4.51-4.5-4.51h-.01c-2.49 0-4.5 2.02-4.5 4.51 0 2.48 2.02 4.5 4.5 4.5Zm10.15 31.94c2.49 0 4.51-2.01 4.51-4.5s-2.01-4.51-4.5-4.51h-.01c-2.49 0-4.5 2.02-4.5 4.51 0 2.48 2.02 4.5 4.5 4.5Zm39.75 22.76c2.49 0 4.51-2.01 4.51-4.5s-2.01-4.51-4.5-4.51h-.01c-2.49 0-4.5 2.02-4.5 4.51 0 2.48 2.02 4.5 4.5 4.5Zm39.64 8.27a4.511 4.511 0 0 0 0-9.02 4.511 4.511 0 0 0 0 9.02Zm24.81 2.97c2.49 0 4.51-2.02 4.51-4.5a4.511 4.511 0 1 0-4.52 4.51Zm22.59-53.04c2.49 0 4.51-2.01 4.51-4.5s-2.01-4.51-4.5-4.51h-.01c-2.49 0-4.5 2.02-4.5 4.51 0 2.48 2.02 4.5 4.5 4.5Zm13 2.17c2.49 0 4.51-2.01 4.51-4.5s-2.01-4.51-4.5-4.51h-.01c-2.49 0-4.5 2.02-4.5 4.51 0 2.48 2.02 4.5 4.5 4.5Zm-.51-27.15c2.49 0 4.51-2.01 4.51-4.5s-2.01-4.51-4.5-4.51h-.01c-2.49 0-4.5 2.02-4.5 4.51 0 2.48 2.02 4.5 4.5 4.5Zm-80.02 71.29a4.511 4.511 0 0 0 0-9.02 4.511 4.511 0 0 0 0 9.02Zm-48.14-11.92c2.49 0 4.51-2 4.52-4.49 0-2.49-2-4.51-4.49-4.52h-.03a4.511 4.511 0 0 0 0 9.02Zm122.05-126.85c2.49 0 4.51-2.01 4.51-4.5s-2.01-4.51-4.5-4.51h-.01c-2.49 0-4.5 2.02-4.5 4.51 0 2.48 2.02 4.5 4.5 4.5Z" style="fill:#80acff"/><path d="m221.82 247.14-12.72 66.79c-.46 2.34-2.68 3.82-5.02 3.42l-66.79-12.72a4.2 4.2 0 0 1-2.79-1.88l-4.96-6.79 5.82-3.94 11.24-59.14c.46-2.34 2.68-3.82 5.02-3.42l59.03 11.24 5.36-3.65 4.9 6.62.23.34c.63.85.91 2 .68 3.14Z" style="fill:#1b1b1d"/><path d="M143.24 236.92c.35-1.82-1.48-3.71-4.08-4.2-2.6-.49-4.99.59-5.34 2.41-.35 1.82 1.48 3.71 4.08 4.2 2.6.49 4.99-.59 5.34-2.41Zm-2.37 12.8c.35-1.83-1.48-3.71-4.08-4.2-2.6-.49-4.99.58-5.34 2.41s1.48 3.71 4.08 4.2c2.6.49 4.99-.58 5.34-2.41Zm-2.3 12.75c.35-1.83-1.48-3.71-4.08-4.2-2.6-.49-4.99.59-5.34 2.41-.35 1.83 1.48 3.71 4.08 4.2 2.6.49 4.99-.59 5.34-2.41Zm-2.37 12.8c.35-1.83-1.48-3.71-4.08-4.2-2.6-.49-4.99.59-5.34 2.41-.35 1.83 1.48 3.71 4.08 4.2 2.6.49 4.99-.59 5.34-2.41Zm-2.31 12.81c.35-1.83-1.48-3.71-4.08-4.2-2.6-.49-4.99.58-5.34 2.41-.35 1.83 1.48 3.71 4.08 4.2 2.6.49 4.99-.58 5.34-2.41Zm77.79-54.6c.49-2.6-.59-4.99-2.41-5.34-1.83-.35-3.71 1.48-4.2 4.08-.49 2.6.59 4.99 2.41 5.34 1.82.35 3.71-1.48 4.2-4.08Zm-12.81-2.31c.49-2.6-.59-4.99-2.41-5.34-1.82-.35-3.71 1.48-4.2 4.08-.49 2.6.59 4.99 2.41 5.34 1.82.35 3.71-1.48 4.2-4.08Zm-12.8-2.37c.49-2.6-.58-4.99-2.41-5.34-1.83-.35-3.71 1.48-4.2 4.08-.49 2.6.58 4.99 2.41 5.34 1.83.35 3.71-1.48 4.2-4.08Zm-12.81-2.31c.49-2.6-.59-4.99-2.41-5.34-1.83-.35-3.71 1.48-4.2 4.08-.49 2.6.59 4.99 2.41 5.34 1.83.35 3.71-1.48 4.2-4.08Zm-12.8-2.37c.49-2.6-.59-4.99-2.41-5.34-1.83-.35-3.71 1.48-4.2 4.08-.49 2.6.59 4.99 2.41 5.34 1.83.35 3.71-1.48 4.2-4.08Z" style="fill:#9397ba"/><path d="m199.18 310.67-66.79-12.72c-2.34-.46-3.88-2.68-3.42-5.02l12.72-66.79c.46-2.34 2.68-3.88 5.02-3.42l66.79 12.72c2.34.46 3.88 2.68 3.42 5.02l-12.72 66.79c-.4 2.34-2.68 3.88-5.02 3.42Z" style="fill:#282828"/><path d="m190.51 296.13-44.66-8.5c-1.54-.29-2.57-1.82-2.28-3.37l8.5-44.66c.29-1.54 1.82-2.57 3.37-2.28l44.66 8.5c1.54.29 2.57 1.82 2.28 3.37l-8.5 44.66c-.29 1.54-1.77 2.57-3.37 2.28Z" style="fill:none;stroke:#2731d4;stroke-miterlimit:10;stroke-width:2.85px"/><path d="M227.51 257.5c.35-1.82-1.46-3.71-4.06-4.22-2.6-.51-4.99.56-5.35 2.39-.35 1.82 1.46 3.71 4.06 4.22s4.99-.56 5.35-2.39Zm-2.41 12.8c.35-1.82-1.46-3.71-4.06-4.22s-4.99.56-5.35 2.39c-.35 1.82 1.46 3.71 4.06 4.22s4.99-.56 5.35-2.39Zm-2.35 12.81c.35-1.82-1.46-3.71-4.06-4.22s-4.99.57-5.35 2.39 1.46 3.71 4.06 4.22c2.6.51 4.99-.57 5.35-2.39Zm-2.4 12.74c.35-1.82-1.46-3.71-4.06-4.22-2.6-.51-4.99.56-5.35 2.39s1.46 3.71 4.06 4.22c2.6.51 4.99-.57 5.35-2.39Zm-2.41 12.8c.35-1.82-1.46-3.71-4.06-4.22-2.6-.51-4.99.56-5.35 2.39-.35 1.82 1.46 3.71 4.06 4.22s4.99-.56 5.35-2.39Zm-20.71 9.84c.49-2.6-.59-4.99-2.41-5.34-1.83-.35-3.71 1.48-4.2 4.08-.49 2.6.59 4.99 2.41 5.34 1.83.35 3.71-1.48 4.2-4.08Zm-12.81-2.31c.49-2.6-.58-4.99-2.41-5.34-1.83-.35-3.71 1.48-4.2 4.08-.49 2.6.58 4.99 2.41 5.34s3.71-1.48 4.2-4.08Zm-12.8-2.36c.49-2.6-.59-4.99-2.41-5.34-1.82-.35-3.71 1.48-4.2 4.08-.49 2.6.59 4.99 2.41 5.34 1.82.35 3.71-1.48 4.2-4.08Zm-12.8-2.37c.49-2.6-.58-4.99-2.41-5.34s-3.71 1.48-4.2 4.08c-.49 2.6.58 4.99 2.41 5.34 1.83.35 3.71-1.48 4.2-4.08Zm-12.81-2.31c.49-2.6-.58-4.99-2.41-5.34-1.83-.35-3.71 1.48-4.2 4.08-.49 2.6.58 4.99 2.41 5.34 1.83.35 3.71-1.48 4.2-4.08Z" style="fill:#9397ba"/><path d="m274.18 188.79 7.7 11.81c1.25 1.88 1.71 4.22 1.31 6.44l-28.57 157.42a8.793 8.793 0 0 1-4.11 5.99l-7.53 4.62c-1.88 1.14-4.16 1.6-6.33 1.14L84.82 346.89c-1.31-.23-2.45-1.03-3.19-2.22l-7.36-12.03" style="fill:none;stroke:#2731d4;stroke-linecap:round;stroke-miterlimit:10;stroke-width:2.85px"/><path d="M359.9 238.64h45.68c8.38 0 15.23 6.79 15.23 15.23v15.68c0 8.38-6.79 15.23-15.23 15.23h-54.75" style="fill:none;stroke:#6e7191;stroke-miterlimit:10;stroke-width:2.85px"/><path d="M363.72 258.09h28.4c6.48 0 11.74 5.24 11.75 11.71v45.89c0 4.51-2.57 8.61-6.62 10.55l-24.92 12.09" style="fill:none;stroke:#4f516e;stroke-miterlimit:10;stroke-width:2.85px"/><path d="M369.94 214.51v48.08s20.59-24.52 0-48.08Zm.91 100.38 7.41 4.96a8.246 8.246 0 0 1 3.65 6.84v26.64c0 2.28-.91 4.45-2.57 5.99l-8.44 7.98v-52.42h-.06Z" style="fill:#6e7191"/><path d="M40.74 461.47c6.96 0 12.6-5.64 12.6-12.6s-5.64-12.61-12.6-12.61-12.6 5.64-12.6 12.61 5.64 12.6 12.6 12.6Zm287.17 0c6.96 0 12.61-5.64 12.61-12.6s-5.64-12.61-12.61-12.61-12.6 5.64-12.6 12.61 5.64 12.6 12.6 12.6Z" style="fill:#40425e"/><path d="M370.85 181.89v238.8c0 .97-.06 1.88-.11 2.79-.8 14.03-6.33 23.44-20.36 26.75-3.71.86-8.04 1.31-13.06 1.31H31.44c-25.04 0-29.66-9.87-30.46-25.1-.06-1.14-.11-2.28-.11-3.48-.06-2.62-.06-5.36-.06-8.27 0-11.52 18.59-28.57 111.67-11.86 2.62.46 5.3.91 7.93 1.37 3.88.63 7.81 1.2 11.63 1.71 52.47 6.96 102.21 2.91 137.85-23.38a31.444 31.444 0 0 1-6.9-8.04c-9.47-15.86-3.36-36.96 13.69-47.11 11.12-6.67 24.12-7.02 34.45-2.05 17.4-46.71 17.17-103.75 32.57-132.95 8.21-15.34 27.15-16.6 27.15-10.5Z" style="fill:#9397ba"/><path d="M25.97 440.02c2.36 0 4.28-1.92 4.28-4.28s-1.92-4.28-4.28-4.28-4.28 1.92-4.28 4.28 1.92 4.28 4.28 4.28Z" style="fill:#f3ff73"/><path d="M355.39 239.08c3.72-2.8 4.62-7.89 2.01-11.37-2.61-3.47-7.75-4.01-11.48-1.21-3.72 2.8-4.62 7.89-2.01 11.37 2.62 3.47 7.76 4.01 11.48 1.21Z" style="fill:#b6bad9"/><path d="m353.06 224.32-4.79 16.88" style="fill:none;stroke:#6e7191;stroke-linecap:round;stroke-linejoin:round;stroke-width:3.06px"/><path d="M351.37 262.08c3.05-.62 5.06-3.43 4.48-6.27-.58-2.84-3.53-4.63-6.58-4.01-3.06.62-5.06 3.43-4.48 6.27.58 2.84 3.53 4.63 6.58 4.01Z" style="fill:#6e7191"/><path d="M351.1 279.33c2.25-.46 3.73-2.54 3.3-4.63-.43-2.1-2.6-3.43-4.86-2.96-2.25.46-3.73 2.54-3.3 4.63.43 2.1 2.6 3.43 4.86 2.96Zm-.01 11.01c2.25-.46 3.73-2.54 3.3-4.63-.43-2.1-2.6-3.43-4.86-2.97-2.25.46-3.73 2.54-3.3 4.63.43 2.1 2.6 3.43 4.86 2.97Zm.2 23.08c2.81-.57 4.65-3.17 4.11-5.79s-3.25-4.28-6.06-3.71c-2.81.57-4.65 3.17-4.11 5.79s3.25 4.28 6.06 3.71Z" style="fill:#121226"/><path d="M352.16 317.66c5.37-1.1 8.9-6.02 7.88-10.99-1.02-4.97-6.19-8.1-11.56-7.01-5.37 1.1-8.9 6.02-7.88 10.99 1.02 4.97 6.19 8.11 11.56 7.01Z" style="fill:none;stroke:#6e7191;stroke-miterlimit:10;stroke-width:2.78px"/><path d="M320.09 365.82c6.62 29.66 34.45-.57 50.82 18.02v12.43c-35.19 11.75-59.03-9.12-60.57-18.71l9.75-11.75ZM116.65 451.6H89.22s-.17-35.42 34.45-47.28c3.88.63 7.81 1.2 11.63 1.71 2.85 22.7-28.18 13.92-18.65 45.57Z" style="fill:#b6bad9"/><path d="M320.89 411.34a3.25 3.25 0 1 0 0-6.5c-1.8 0-3.25 1.45-3.25 3.25a3.25 3.25 0 0 0 3.25 3.25Zm11.52 0c1.8 0 3.25-1.46 3.25-3.25s-1.46-3.25-3.25-3.25-3.25 1.46-3.25 3.25 1.46 3.25 3.25 3.25Zm11.58 0c1.8 0 3.25-1.46 3.25-3.25s-1.46-3.25-3.25-3.25-3.25 1.46-3.25 3.25 1.46 3.25 3.25 3.25Zm-11.58-18.65a3.25 3.25 0 1 0 .1-6.5h-.1c-1.8.04-3.22 1.52-3.18 3.32a3.25 3.25 0 0 0 3.19 3.18Zm11.58 0a3.25 3.25 0 1 0 .1-6.5h-.1c-1.8.04-3.22 1.52-3.18 3.32a3.25 3.25 0 0 0 3.19 3.18Zm11.52 18.65c1.8 0 3.25-1.46 3.25-3.25s-1.46-3.25-3.25-3.25-3.25 1.46-3.25 3.25 1.46 3.25 3.25 3.25Zm-28.86-9.35c1.8 0 3.25-1.46 3.25-3.25s-1.46-3.25-3.25-3.25-3.25 1.46-3.25 3.25 1.46 3.25 3.25 3.25Zm11.58 0c1.8 0 3.25-1.46 3.25-3.25s-1.46-3.25-3.25-3.25-3.25 1.46-3.25 3.25 1.46 3.25 3.25 3.25Zm0-18.31c1.8 0 3.25-1.46 3.25-3.25s-1.46-3.25-3.25-3.25c-1.8-.03-3.28 1.4-3.31 3.19s1.4 3.28 3.19 3.31h.11Zm11.52 18.31c1.8 0 3.25-1.46 3.25-3.25s-1.46-3.25-3.25-3.25-3.25 1.46-3.25 3.25 1.46 3.25 3.25 3.25Z" style="fill:#121226"/><path d="M301.75 381.84c14.73-3.25 24.23-16.98 21.21-30.67-3.02-13.69-17.41-22.15-32.14-18.9s-24.23 16.98-21.21 30.67 17.41 22.15 32.14 18.9Z" style="fill:#f7f7f7"/><path d="M302.02 383.07c15.44-3.41 25.39-17.81 22.22-32.18-3.17-14.36-18.26-23.25-33.7-19.84-15.44 3.41-25.39 17.81-22.22 32.18 3.17 14.36 18.26 23.25 33.7 19.84Z" style="fill:none;stroke:#6e7191;stroke-linecap:round;stroke-linejoin:round;stroke-width:3.06px"/><path d="M298.17 365.64c5.08-1.12 8.34-5.87 7.3-10.6-1.05-4.74-6.01-7.67-11.08-6.55-5.08 1.12-8.34 5.87-7.3 10.6 1.05 4.74 6.01 7.67 11.08 6.55Z" style="fill:none;stroke:#a4a6bd;stroke-miterlimit:10;stroke-width:2.53px"/><path d="M297.19 361.18c2.43-.54 3.99-2.82 3.49-5.09s-2.88-3.69-5.31-3.15-3.99 2.82-3.49 5.09c.5 2.28 2.88 3.69 5.31 3.15Zm19.68-1.21c1.38-.3 2.28-1.58 2-2.84-.28-1.26-1.63-2.04-3.01-1.73-1.38.31-2.28 1.58-2 2.84.28 1.26 1.63 2.04 3.01 1.73Zm-4.45-13.34c1.38-.3 2.28-1.58 2-2.84s-1.63-2.04-3.01-1.73c-1.38.31-2.28 1.58-2 2.84.28 1.26 1.63 2.04 3.01 1.73Zm-12.49-6.96c1.38-.3 2.28-1.58 2-2.84s-1.63-2.04-3.01-1.73c-1.38.31-2.28 1.58-2 2.84.28 1.26 1.63 2.04 3.01 1.73Zm-14.71 3.77c1.39-.3 2.28-1.58 2-2.84s-1.63-2.04-3.01-1.73c-1.38.31-2.28 1.58-2 2.84.28 1.26 1.62 2.04 3.01 1.73Zm-7.64 11.11c1.38-.3 2.28-1.58 2-2.84-.28-1.26-1.62-2.04-3.01-1.73-1.38.31-2.28 1.58-2 2.84.28 1.26 1.63 2.04 3.01 1.73Zm1.37 13.01c1.38-.3 2.28-1.58 2-2.84s-1.63-2.04-3.01-1.73c-1.38.31-2.28 1.58-2 2.84.28 1.26 1.63 2.04 3.01 1.73Zm8.96 8.84c1.38-.3 2.28-1.58 2-2.84-.28-1.26-1.63-2.04-3.01-1.73-1.38.3-2.28 1.58-2 2.84.28 1.26 1.63 2.04 3.01 1.73Z" style="fill:#6e7191"/><path d="m292.03 337.71 4.28 19.33" style="fill:none;stroke:#6e7191;stroke-linecap:round;stroke-miterlimit:10;stroke-width:2.78px"/><path d="M370.85 420.69c0 .97-.06 1.88-.11 2.79H8.46c-2.79 0-5.47 1.08-7.47 3.02-.06-1.14-.11-2.28-.11-3.48 2.22-1.48 4.85-2.34 7.64-2.34h362.34Z" style="fill:#6e7191"/><path d="m250.97 422.91-.29.57-14.6 28.06h-3.48l14.6-28.06 1.03-2c.23-.39.6-.67 1.03-.8.22-.06.46-.06.68 0 .12 0 .23.06.4.11.68.4.97 1.37.63 2.11Zm15.8 0-.29.57-14.6 28.06h-3.48l14.6-28.06 1.03-2c.23-.39.6-.67 1.03-.8.22-.06.46-.06.68 0 .11 0 .23.06.34.11.77.38 1.08 1.31.7 2.08 0 .01-.01.02-.02.03Zm15.8 0-.29.57-14.6 28.06h-3.48l14.6-28.06 1.03-2c.23-.39.6-.67 1.03-.8.22-.06.46-.06.68 0 .11 0 .23.06.34.11.77.38 1.08 1.31.7 2.08 0 .01-.01.02-.02.03Zm-78.88 28.63H37.37c70.49-20.36 135.97-8.1 166.31 0Z" style="fill:#6e7191"/><path d="M350.38 450.23c-3.71.86-8.04 1.31-13.06 1.31H234.43c57.55-22.3 97.3-10.44 115.95-1.31Zm20.48-268.35c1.65 39.35 2.17 79.39 2.28 118.8.11 39.41-.23 79.39-2.28 118.8-2.05-39.41-2.39-79.39-2.28-118.8.17-39.41.63-79.45 2.28-118.8Z" style="fill:#6e7191"/><path d="M370.85 181.89c-.57-3.76-6.27-2.97-8.9-2.4-3.36.8-6.5 2.4-9.18 4.45-2.68 2.05-5.02 4.62-6.73 7.58-1.14 2.05-2.39 4.79-3.31 7.02-2.91 7.36-4.9 15.06-6.62 22.81-6.67 31.08-9.75 64.11-19.85 94.39-1.14 3.42-2.39 6.79-3.65 10.15-.29.8-1.2 1.14-1.94.8-7.36-3.31-15.86-3.88-23.61-1.71-24.98 6.45-36.84 38.56-16.14 56.58.68.57.68 1.71-.06 2.23-9.58 7.13-20.3 12.66-31.54 16.71-33.76 12.09-70.55 11.64-105.68 7.19-17.45-2.28-34.96-6.16-52.47-8.21-18.88-2.11-38.16-3.76-56.98-.74-4.22.68-8.61 1.83-12.55 3.54-5.19 2.28-10.49 6.39-10.72 12.49-.17-3.02 1.14-5.93 3.02-8.21 16.88-18.48 71.86-10.61 95.13-7.24 17.34 2.8 34.9 5.99 52.47 7.24 40.32 3.08 84.01-.63 117.66-25.04l-.06 2.23c-10.55-8.33-14.6-23.27-10.49-35.93 6.5-21.73 32.79-33.99 53.27-23.61l-1.94.8c4.62-13.4 7.93-27.21 10.72-41.18 5.93-27.89 7.87-57.04 18.08-83.9 1.37-3.36 2.91-6.73 4.85-9.87 3.02-4.73 7.58-8.44 12.77-10.49 3.42-1.31 7.24-2.05 10.89-1.2 1.65.29 3.71 1.54 3.54 3.54Z" style="fill:#b6bad9"/><path d="M276.35 168.88a4.22 4.22 0 1 0-.002-8.442 4.22 4.22 0 0 0 .002 8.442ZM31.27 264.93a4.22 4.22 0 0 0 0-8.44 4.22 4.22 0 0 0 0 8.44Zm267.72-61.37c3.75 0 6.79-3.03 6.79-6.78 0-3.75-3.03-6.79-6.78-6.79-3.75 0-6.79 3.04-6.78 6.79a6.78 6.78 0 0 0 6.78 6.78ZM47.81 230.6c3.31.06 6.04-2.57 6.1-5.88a5.989 5.989 0 0 0-5.88-6.1h-.22a5.986 5.986 0 0 0-5.88 6.09c.06 3.23 2.66 5.83 5.88 5.88Zm36.9-61.65c1.89 0 3.42-1.53 3.42-3.42s-1.53-3.42-3.42-3.42-3.42 1.53-3.42 3.42 1.53 3.42 3.42 3.42Zm250.95 3.42c1.89 0 3.42-1.53 3.42-3.42s-1.53-3.42-3.42-3.42-3.42 1.53-3.42 3.42 1.53 3.42 3.42 3.42ZM58.53 353.33c2.71 0 4.91-2.19 4.91-4.9s-2.19-4.91-4.9-4.91c-2.71 0-4.9 2.2-4.9 4.91s2.2 4.9 4.9 4.9Zm92.91 30.8c2.9.04 5.28-2.28 5.32-5.17s-2.28-5.28-5.17-5.32h-.15c-2.9.04-5.21 2.42-5.17 5.32.04 2.84 2.33 5.14 5.17 5.17Zm43.35 11.46c3.69 0 6.67-2.99 6.67-6.67s-2.99-6.67-6.67-6.67a6.663 6.663 0 0 0-6.75 6.59 6.663 6.663 0 0 0 6.59 6.75h.16Zm95.08-115.78c2.71 0 4.91-2.19 4.91-4.9 0-2.71-2.19-4.91-4.9-4.91-2.71 0-4.9 2.2-4.9 4.91s2.2 4.9 4.9 4.9ZM181.16 158.33a4.27 4.27 0 0 0 4.34-4.21 4.27 4.27 0 0 0-4.21-4.34h-.13c-2.36.04-4.25 1.98-4.21 4.34.04 2.31 1.9 4.18 4.21 4.21Z" style="fill:#c5bdff"/></svg>