<svg xmlns="http://www.w3.org/2000/svg" width="422" height="531"><path d="M301.54 67.57H57.21c-36.33 0-51.84 10.2-51.84 55.07V414.3h356.75V124.71c0-45.51-21.56-57.15-60.57-57.15Z" style="fill:#e2dcfe"/><path d="M350.7 129.95v284.34H17.4V133.52c0-1.96 1.6-3.51 3.48-3.4 7.47.29 26.46.98 51.5 1.5 4.22.11 8.61.17 13.12.29 6.84.11 14.03.23 21.44.35 42.38.52 92.68.29 134.32-2.19 91.31-5.59 109.45-.11 109.45-.11Z" style="fill:#9187ff"/><path d="M350.7 129.95c-98.21 11.81-242.28 2.31-243.71 2.19 42.38.52 92.68.29 134.32-2.19 91.25-5.47 109.39 0 109.39 0Z" style="fill:#b8aeff"/><path d="M267.95 81.74c-.57 7.37 40.61 7.84 41.75 1.9 1.2-5.93-41.18-9.27-41.75-1.9Zm71.61 17.71c2.47-3.1 1.03-8.41-3.22-11.86-4.25-3.45-9.69-3.73-12.16-.64-2.47 3.1-1.03 8.41 3.22 11.86s9.69 3.73 12.16.64Z" style="fill:#f7f7f7"/><path d="M107.79 229.67c22.47 51.96-26.58 59.57-29.89 29.21m-12.72 26.61c-55.21 23.96-36.56 93.09 8.33 92.8" style="fill:none;stroke:#5d4dc4;stroke-miterlimit:10;stroke-width:2.87px"/><path d="M156.33 187.85c7.02 0 12.72-5.75 12.72-12.85s-5.69-12.85-12.72-12.85-12.72 5.75-12.72 12.85 5.69 12.85 12.72 12.85Z" style="fill:#e2dcfe"/><path d="m101.68 220.09 6.65 4.76 7.12-10.15-6.65-4.76-7.12 10.15Z" style="fill:#473aa1"/><path d="m55.49 301.39-9.3 20.51c-2.05 4.52-1.94 9.73.28 14.17l20.48 40.61 10.55 20.85 10.95-11.06-20.19-45.74-9.64-21.83c-.51-1.2-.63-2.53-.34-3.8l2.4-10.2-5.19-3.51Z" style="fill:#7d6afc"/><path d="m68.21 340.79-2.22 3.86c-1.83 3.17-2 7.09-.46 10.37l3.76 8.07c1.6 3.4 1.37 7.32-.51 10.54l-1.82 3.11 10.55 20.85 10.95-11.06-20.25-45.74Z" style="fill:#5d4dc4"/><path d="m51.9 285.49 10.55 3.92 15.51-23.79c1.48-2.25 3.71-3.98 6.27-4.78l6.04-1.96c2.72-.89 5.03-2.73 6.5-5.18l1.48-2.42 13.29-22.06c.8-1.38.51-3.11-.74-4.09l-10.38-8.12c-1.43-1.09-3.48-.75-4.5.75l-8.78 13.54-35.25 54.21Z" style="fill:#7d6afc"/><path d="M87.09 231.28c0 .23-1.08 13.08 11.12 19.93l13.29-22.06c.8-1.38.51-3.11-.74-4.09l-10.38-8.12c-1.43-1.1-3.48-.75-4.5.75l-8.78 13.6Z" style="fill:#5d4dc4"/><path d="M100.38 237.27c2.08 0 3.76-1.7 3.76-3.8s-1.68-3.8-3.76-3.8-3.76 1.7-3.76 3.8 1.68 3.8 3.76 3.8Z" style="fill:#f3ff73"/><path d="m156.56 203.57 3.88 6.28 10.27-14.11 13.52-18.55-7.53-1.96c-2.57-.69-5.3.35-6.84 2.54l-7.93 11.18-5.25 7.37c-1.37 2.13-1.48 5.01-.11 7.26Z" style="fill:#5d4dc4"/><path d="m156.56 203.57 3.88 6.28 10.27-14.11-8.73-6.86-5.25 7.37c-1.43 2.19-1.54 5.07-.17 7.32Zm-44.66-46.6 3.65 7.6a5.752 5.752 0 0 0 4.85 3.23l7.24.23 14.66.52c2.45.06 4.62-1.44 5.48-3.75l2.68-7.32-22.41-.29-16.14-.23Z" style="fill:#7d6afc"/><path d="m128.04 157.2-.4 10.83 14.66.52c2.45.06 4.62-1.44 5.48-3.75l2.68-7.32-22.41-.29Z" style="fill:#5d4dc4"/><path d="m184.34 177.25-22.76 31.22c-.68.99-1.6 1.78-2.68 2.3l-22.81 12.15c-3.52 1.9-7.83 1.56-11.01-.86l-24.12-18.32c-3.76-2.88-5.13-7.95-3.31-12.33l13.8-33.35c.29-.73.99-1.21 1.77-1.21l36.84.46" style="fill:none;stroke:#473aa1;stroke-linecap:round;stroke-linejoin:round;stroke-width:3.88px"/><path d="M63.08 310.89c10.55 0 19.11-8.64 19.11-19.3s-8.55-19.3-19.11-19.3-19.11 8.64-19.11 19.3 8.56 19.3 19.11 19.3Z" style="fill:#3f3199"/><path d="M76.6 299.34c2.73-4.62 2.09-10.08-1.43-12.2-3.52-2.12-8.58-.09-11.31 4.53-2.73 4.62-2.09 10.08 1.43 12.2 3.52 2.12 8.58.09 11.31-4.53Z" style="fill:#7b68f7"/><path d="m153.14 422.25-42.09-4.32-82.24-8.47v-15.27c0-5.18 3.99-9.51 9.13-9.85l68.33-4.55 16.94-1.1c3.82-.23 7.41 1.73 9.24 5.13l20.7 38.42Z" style="fill:#3f3199"/><path d="m153.14 422.25-42.09-4.32-4.73-38.08 16.94-1.09c3.82-.23 7.41 1.73 9.24 5.13l20.65 38.36Z" style="fill:#5d4dc4"/><path d="m234.71 323.72-10.51 16.73 38.09 24.41 10.51-16.73-38.09-24.41Z" style="fill:#473aa1"/><path d="m252.49 321.95 21.84 13.94" style="fill:none;stroke:#5d4dc4;stroke-miterlimit:10;stroke-width:2.87px"/><path d="m286.54 296.38-93.42 79.73c-1.37 1.15-3.25 1.27-4.79.35l-67.47-43.2c-3.99-2.53-4.45-8.24-.91-11.41.06-.06.11-.12.17-.12l92.85-79.21c1.37-1.15 3.25-1.27 4.79-.35l68.1 43.67c3.71 2.3 4.05 7.66.68 10.54Z" style="fill:#5d4dc4"/><path d="m286.54 296.38-93.42 79.73c-1.37 1.15-3.25 1.27-4.79.35l-67.47-43.2c-3.99-2.54-4.45-8.24-.91-11.41l70.38 45.11c1.71 1.1 3.99.98 5.53-.4l89.54-76.21c1.37-1.15 1.54-3.23.46-4.61 3.71 2.42 4.05 7.78.68 10.66Z" style="fill:#e2dcfe"/><path d="m178 365.22-18.54 17.68" style="fill:none;stroke:#5d4dc4;stroke-linecap:round;stroke-miterlimit:10;stroke-width:2.87px"/><path d="m193.23 353.47-50.99-32.66c-1.94-1.21-2.11-3.98-.34-5.47l74.26-63.37c1.14-.98 2.74-1.1 3.99-.29l50.99 32.66c1.94 1.21 2.11 3.97.34 5.47l-74.26 63.37a3.31 3.31 0 0 1-3.99.29Z" style="fill:#7d6afc"/><path d="M188.84 275.29c35.82 6.05 7.53 39.8 45.29 46.37l-8.44 7.2c-36.1-18.78-27.32-35.43-53.44-39.4l16.6-14.17Z" style="fill:#9187ff"/><path d="m261.45 278.17-79.68 67.98m64.73-77.54-79.62 67.98m64.68-77.54-79.62 67.92m111.45-30.24-56.86-36.46m-12.6 10.71 43.35 27.82m-57.09-16.13 43.4 27.82m-57.09-16.13 43.4 27.82m-57.09-16.13 56.86 36.46" style="fill:none;stroke:#5d4dc4;stroke-linecap:round;stroke-miterlimit:10;stroke-width:2.59px"/><path d="M251.29 299.6c1.29 0 2.34-1.06 2.34-2.36s-1.05-2.36-2.34-2.36-2.34 1.06-2.34 2.36c0 1.3 1.04 2.36 2.34 2.36Zm-79.34 27.82c1.3 0 2.35-1.06 2.34-2.36 0-1.31-1.05-2.36-2.34-2.36s-2.34 1.06-2.34 2.36 1.05 2.36 2.34 2.36Zm28.23 18.09c1.29 0 2.34-1.06 2.34-2.36 0-1.3-1.04-2.35-2.34-2.36-1.29 0-2.34 1.06-2.34 2.36s1.05 2.36 2.34 2.36Zm51.16-64.17c1.29 0 2.34-1.06 2.34-2.36s-1.05-2.36-2.34-2.36c-1.3 0-2.35 1.06-2.34 2.36 0 1.3 1.04 2.36 2.34 2.36Zm-50.93 44.36c1.3 0 2.35-1.06 2.34-2.36 0-1.3-1.04-2.36-2.34-2.36-1.29 0-2.34 1.06-2.34 2.36s1.05 2.36 2.34 2.36Zm-29.49-18.89c1.29 0 2.34-1.06 2.34-2.36s-1.05-2.36-2.34-2.36-2.34 1.06-2.34 2.36 1.05 2.36 2.34 2.36Zm54.98-25.06c1.29 0 2.34-1.06 2.34-2.36s-1.05-2.36-2.34-2.36c-1.3 0-2.35 1.06-2.34 2.36 0 1.3 1.04 2.36 2.34 2.36Zm1.6 20.28c1.29 0 2.34-1.06 2.34-2.36s-1.05-2.36-2.34-2.36c-1.3 0-2.35 1.06-2.34 2.36 0 1.31 1.05 2.36 2.34 2.36Z" style="fill:#e2dcfe"/><path d="m149.77 333.65-16.48-10.48m28.86 18.43-5.19-3.34" style="fill:none;stroke:#f3ff73;stroke-linecap:round;stroke-miterlimit:10;stroke-width:2.87px"/><path d="m132.6 329.9-2.62 9.1 9.18 5.88 2.62-9.1-9.18-5.88Z" style="fill:#5d4dc4"/><path d="M292.36 204.67c-20.25 62.1 31.83 70.51 48.02 38.13" style="fill:none;stroke:#5d4dc4;stroke-miterlimit:10;stroke-width:2.87px"/><path d="m349.33 215.5-8.95 27.25-23.78-7.43c-3.44-1.1-6.27-3.58-7.81-6.85l-7.36-15.55c-.57-1.15-1.48-2.07-2.68-2.53l-14.6-5.99-16.6-6.8 2.34-8.24 12.32 4.03 26.75 8.76 40.38 13.37Z" style="fill:#7d6afc"/><path d="m349.33 215.5-8.95 27.25-23.78-7.43s6.56-18.09-7.64-33.12l40.38 13.31Z" style="fill:#5d4dc4"/><path d="m282.2 193.44 2 11-16.6-6.8 2.28-8.24 12.32 4.03Z" style="fill:#3f3199"/><path d="M272 187.33c1.48 15.78-10.89 29.9-27.6 31.51s-31.48-9.91-32.97-25.69 10.89-29.96 27.6-31.51c5.36-.52 10.49.35 15.11 2.19 9.7 3.97 16.83 12.73 17.85 23.5Z" style="fill:#5d4dc4"/><path d="m255.57 190.15-11.18 28.74c-16.71 1.61-31.48-9.91-32.97-25.69-1.48-15.79 10.89-29.96 27.6-31.51 5.36-.52 10.49.35 15.11 2.19 9.92 12.73 1.43 26.27 1.43 26.27Z" style="fill:#7d6afc"/><path d="M260.44 203.29c1.85-8.55-6.53-17.66-18.72-20.35-12.19-2.69-23.56 2.06-25.41 10.61-1.85 8.55 6.53 17.66 18.72 20.34 12.19 2.69 23.57-2.06 25.41-10.61Z" style="fill:#473aa1"/><path d="M247.87 196.26c-.57 2.71-3.25 4.61-6.79 5.07-1.43.17-2.91.12-4.45-.17-5.42-1.1-9.24-5.13-8.5-8.93.57-2.88 3.54-4.84 7.3-5.13 1.32-.12 2.64-.04 3.94.23 5.48 1.1 9.3 5.13 8.5 8.93Z" style="fill:#9187ff"/><path d="M241.14 201.33c-1.43.17-2.91.12-4.45-.17-5.42-1.1-9.24-5.13-8.5-8.93.57-2.88 3.54-4.84 7.3-5.13l5.65 14.23Z" style="fill:#f3ff73"/><path d="m349.9 186.06-6.79.11c-4.11.06-7.7 2.82-8.84 6.8l-14.37 50.58c-1.43 5.01 1.43 10.2 6.39 11.64l23.61-69.13Z" style="fill:#3f3199"/><path d="M359.09 238.37h45.68c8.38 0 15.23 6.85 15.23 15.38v15.84c0 8.47-6.79 15.38-15.23 15.38h-54.75" style="fill:none;stroke:#6e7191;stroke-miterlimit:10;stroke-width:2.87px"/><path d="M369.12 214v48.56s20.59-24.77 0-48.56Z" style="fill:#8747cc"/><path d="m370.04 315.44 7.41 5.01a8.384 8.384 0 0 1 3.65 6.91v26.9c0 2.3-.91 4.49-2.57 6.05l-8.44 8.07v-52.94h-.06Z" style="fill:#6e7191"/><path d="M39.92 463.43c6.96 0 12.6-5.7 12.6-12.73s-5.64-12.73-12.6-12.73-12.6 5.7-12.6 12.73 5.64 12.73 12.6 12.73Zm287.17 0c6.96 0 12.61-5.7 12.61-12.73s-5.64-12.73-12.61-12.73-12.6 5.7-12.6 12.73 5.64 12.73 12.6 12.73Z" style="fill:#40425e"/><path d="M370.04 181.05v241.2c0 .98-.06 1.9-.11 2.82-.8 14.17-6.33 23.68-20.36 27.02-3.71.86-8.04 1.33-13.06 1.33H30.63c-25.04 0-29.66-9.96-30.46-25.35-.06-1.15-.11-2.3-.11-3.51-.06-2.65-.06-5.41-.06-8.35 0-11.64 18.59-28.86 111.67-11.98 2.62.46 5.3.92 7.93 1.38 3.88.63 7.81 1.21 11.63 1.73 52.47 7.03 102.21 2.94 137.85-23.62-2.74-2.3-5.08-5.04-6.9-8.12-9.47-16.01-3.36-37.33 13.69-47.58 11.12-6.74 24.12-7.09 34.45-2.07 17.4-47.18 17.17-104.79 32.57-134.28 8.21-15.5 27.15-16.71 27.15-10.6Z" style="fill:#bc83fb"/><path d="M25.15 441.83c2.36 0 4.28-1.93 4.28-4.32s-1.92-4.32-4.28-4.32-4.28 1.93-4.28 4.32 1.92 4.32 4.28 4.32Z" style="fill:#f3ff73"/><path d="M354.52 238.84c3.72-2.83 4.62-7.97 2.01-11.48-2.61-3.51-7.75-4.05-11.48-1.22-3.72 2.83-4.62 7.97-2.01 11.48 2.61 3.51 7.75 4.05 11.48 1.22Z" style="fill:#d3abff"/><path d="m352.24 223.91-4.79 17.05" style="fill:none;stroke:#8747cc;stroke-linecap:round;stroke-linejoin:round;stroke-width:3.09px"/><path d="M350.55 262.03c3.05-.63 5.06-3.47 4.48-6.34-.58-2.87-3.53-4.68-6.58-4.05-3.05.63-5.06 3.47-4.48 6.34.58 2.87 3.53 4.68 6.58 4.05Z" style="fill:#8747cc"/><path d="M350.28 279.45c2.25-.47 3.73-2.56 3.3-4.68-.43-2.12-2.6-3.46-4.86-2.99-2.25.47-3.73 2.56-3.3 4.68.43 2.12 2.6 3.46 4.86 2.99Zm0 11.18c2.25-.46 3.73-2.56 3.3-4.68-.43-2.12-2.6-3.46-4.86-2.99-2.25.46-3.73 2.56-3.3 4.68.43 2.12 2.6 3.46 4.86 2.99Zm.19 23.25c2.81-.58 4.65-3.2 4.11-5.85-.54-2.65-3.25-4.33-6.06-3.75s-4.65 3.2-4.11 5.85c.54 2.65 3.25 4.33 6.06 3.75Z" style="fill:#121226"/><path d="M351.34 318.17c5.37-1.11 8.9-6.08 7.88-11.1-1.02-5.02-6.19-8.19-11.56-7.08-5.37 1.11-8.9 6.08-7.88 11.1 1.02 5.02 6.19 8.19 11.56 7.08Z" style="fill:none;stroke:#8747cc;stroke-miterlimit:10;stroke-width:2.8px"/><path d="M319.28 366.89c6.62 29.95 34.45-.58 50.82 18.2v12.56c-35.19 11.87-59.03-9.22-60.57-18.89l9.75-11.87Zm-203.44 86.58H88.41s-.17-35.77 34.45-47.76c3.88.63 7.81 1.21 11.63 1.73 2.85 22.93-28.18 14.05-18.65 46.03Z" style="fill:#d3abff"/><path d="M320.08 412.8c1.8 0 3.25-1.47 3.25-3.28s-1.45-3.28-3.25-3.28-3.25 1.47-3.25 3.28 1.46 3.28 3.25 3.28Zm11.52 0c1.8 0 3.25-1.47 3.25-3.28s-1.46-3.28-3.25-3.28-3.25 1.47-3.25 3.28 1.45 3.28 3.25 3.28Zm11.58 0c1.8 0 3.25-1.47 3.25-3.28s-1.46-3.28-3.25-3.28-3.25 1.47-3.25 3.28 1.45 3.28 3.25 3.28Zm-11.58-18.84c1.8 0 3.25-1.47 3.25-3.28s-1.46-3.28-3.25-3.28-3.25 1.47-3.25 3.28 1.45 3.28 3.25 3.28Zm11.58 0c1.8 0 3.25-1.47 3.25-3.28s-1.46-3.28-3.25-3.28-3.25 1.47-3.25 3.28 1.45 3.28 3.25 3.28Zm11.52 18.84c1.8 0 3.25-1.47 3.25-3.28s-1.46-3.28-3.25-3.28-3.25 1.47-3.25 3.28 1.45 3.28 3.25 3.28Zm-28.86-9.45c1.8 0 3.25-1.47 3.25-3.28s-1.45-3.28-3.25-3.28-3.25 1.47-3.25 3.28 1.45 3.28 3.25 3.28Zm11.58 0c1.8 0 3.25-1.47 3.25-3.28s-1.45-3.28-3.25-3.28-3.25 1.47-3.25 3.28 1.46 3.28 3.25 3.28Zm0-18.43c1.8 0 3.25-1.47 3.25-3.28s-1.45-3.28-3.25-3.28-3.25 1.47-3.25 3.28 1.46 3.28 3.25 3.28Zm11.52 18.43c1.8 0 3.25-1.47 3.25-3.28s-1.45-3.28-3.25-3.28-3.25 1.47-3.25 3.28 1.46 3.28 3.25 3.28Z" style="fill:#121226"/><path d="M300.89 383.05c14.73-3.28 24.23-17.15 21.21-30.98s-17.41-22.37-32.14-19.09c-14.73 3.28-24.23 17.15-21.21 30.98s17.41 22.37 32.14 19.09Z" style="fill:#f7f7f7"/><path d="M301.16 384.28c15.44-3.44 25.39-17.99 22.22-32.5-3.17-14.51-18.26-23.48-33.7-20.04s-25.39 17.99-22.22 32.5c3.17 14.51 18.26 23.48 33.7 20.04h0Z" style="fill:none;stroke:#8747cc;stroke-linecap:round;stroke-linejoin:round;stroke-width:3.09px"/><path d="M297.32 366.68c5.08-1.13 8.34-5.93 7.3-10.71-1.05-4.79-6.01-7.75-11.08-6.62-5.08 1.13-8.34 5.93-7.3 10.71 1.05 4.79 6.01 7.75 11.08 6.62Z" style="fill:none;stroke:#a4a6bd;stroke-miterlimit:10;stroke-width:2.55px"/><path d="M296.33 362.18c2.43-.54 3.99-2.84 3.49-5.14s-2.88-3.72-5.31-3.18c-2.43.54-3.99 2.84-3.49 5.14s2.88 3.72 5.31 3.18Z" style="fill:#8747cc"/><path d="M316 360.9c1.38-.31 2.28-1.59 2-2.86-.28-1.27-1.62-2.06-3.01-1.75-1.38.31-2.28 1.59-2 2.86.28 1.27 1.63 2.06 3.01 1.75Zm-4.45-13.48c1.38-.31 2.28-1.59 2-2.86-.28-1.27-1.63-2.06-3.01-1.75-1.39.31-2.28 1.59-2 2.86s1.63 2.06 3.01 1.75Zm-12.5-7.03c1.39-.31 2.28-1.59 2-2.86-.28-1.27-1.63-2.06-3.01-1.75-1.38.31-2.28 1.59-2 2.86.28 1.27 1.63 2.06 3.01 1.75Zm-14.71 3.81c1.38-.31 2.28-1.59 2-2.86-.28-1.27-1.63-2.06-3.01-1.75-1.38.31-2.28 1.59-2 2.86s1.63 2.06 3.01 1.75Zm-7.64 11.22c1.38-.31 2.28-1.59 2-2.86-.28-1.27-1.63-2.06-3.01-1.75s-2.28 1.59-2 2.86c.28 1.27 1.62 2.06 3.01 1.75Zm1.37 13.14c1.38-.31 2.28-1.59 2-2.86-.28-1.27-1.63-2.06-3.01-1.75-1.38.31-2.28 1.59-2 2.86s1.63 2.06 3.01 1.75Zm8.96 8.92c1.38-.31 2.28-1.59 2-2.86-.28-1.27-1.63-2.06-3.01-1.75-1.39.31-2.28 1.59-2 2.86s1.63 2.06 3.01 1.75Z" style="fill:#6e7191"/><path d="m291.22 338.43 4.28 19.59" style="fill:none;stroke:#8747cc;stroke-linecap:round;stroke-miterlimit:10;stroke-width:2.8px"/><path d="M370.04 422.25c0 .98-.06 1.9-.11 2.82H7.64c-2.79 0-5.48 1.1-7.47 3.05-.06-1.15-.11-2.3-.11-3.51 2.22-1.5 4.85-2.36 7.64-2.36h362.34Z" style="fill:#8747cc"/><path d="m250.15 424.49-.29.58-14.6 28.34h-3.48l14.6-28.34 1.03-2.02c.23-.39.59-.68 1.03-.81.22-.06.46-.06.68 0 .12 0 .23.06.4.12.68.46.97 1.38.63 2.13Zm15.8 0-.29.58-14.6 28.34h-3.48l14.6-28.34 1.03-2.02c.23-.39.59-.68 1.03-.81.22-.06.46-.06.68 0 .11 0 .23.06.34.12.8.46 1.08 1.38.68 2.13Zm15.8 0-.29.58-14.6 28.34h-3.48l14.6-28.34 1.03-2.02c.23-.39.59-.68 1.03-.81.22-.06.46-.06.68 0 .11 0 .23.06.34.12.8.46 1.08 1.38.68 2.13Zm-78.88 28.98H36.56c70.49-20.62 135.97-8.24 166.31 0Z" style="fill:#8747cc"/><path d="M349.56 452.09c-3.71.86-8.04 1.33-13.06 1.33H233.61c57.55-22.47 97.3-10.54 115.95-1.33Zm20.48-271.04c1.65 39.75 2.17 80.19 2.28 119.99s-.23 80.19-2.28 119.99c-2.05-39.81-2.39-80.19-2.28-119.99.17-39.81.63-80.25 2.28-119.99Z" style="fill:#8747cc"/><path d="M370.04 181.05c-.57-3.8-6.27-3-8.9-2.42-3.36.81-6.5 2.42-9.18 4.49-2.68 2.07-5.02 4.67-6.73 7.66-1.14 2.07-2.39 4.84-3.31 7.09-2.91 7.43-4.9 15.21-6.62 23.04-6.67 31.4-9.75 64.75-19.85 95.34-1.14 3.46-2.39 6.85-3.65 10.25-.26.74-1.07 1.12-1.81.86-.04-.02-.09-.03-.13-.05-7.36-3.34-15.86-3.92-23.61-1.73-24.98 6.51-36.84 38.94-16.14 57.14.68.58.68 1.73-.06 2.25-9.58 7.2-20.3 12.79-31.54 16.88-33.76 12.21-70.55 11.75-105.68 7.26-17.45-2.3-34.96-6.22-52.47-8.3-18.88-2.19-38.16-3.8-56.98-.75-4.22.69-8.61 1.84-12.55 3.57-5.19 2.3-10.49 6.45-10.72 12.61-.17-3.05 1.14-5.99 3.02-8.3 16.88-18.66 71.86-10.71 95.13-7.32 17.34 2.82 34.9 6.05 52.47 7.32 40.32 3.11 84.01-.63 117.66-25.29l-.06 2.25c-10.55-8.41-14.6-23.5-10.49-36.29 6.5-21.95 32.79-34.33 53.27-23.85l-1.94.81c4.62-13.54 7.93-27.48 10.72-41.59 5.93-28.17 7.87-57.61 18.08-84.74 1.37-3.4 2.91-6.8 4.85-9.97 3.02-4.78 7.58-8.53 12.77-10.6 3.42-1.32 7.24-2.07 10.89-1.21 1.65.29 3.71 1.56 3.54 3.57Z" style="fill:#d3abff"/><path d="M150.86 253c2.46 0 4.45-2.01 4.45-4.49s-1.99-4.49-4.45-4.49-4.45 2.01-4.45 4.49 1.99 4.49 4.45 4.49Zm33.48-19.24c3.84 0 6.96-3.15 6.96-7.03s-3.12-7.03-6.96-7.03-6.96 3.15-6.96 7.03 3.12 7.03 6.96 7.03Zm122.68-74.54c2.96 0 5.36-2.42 5.36-5.42s-2.4-5.42-5.36-5.42-5.36 2.43-5.36 5.42 2.4 5.42 5.36 5.42Zm-40.89 89.63c1.8 0 3.25-1.47 3.25-3.28s-1.46-3.28-3.25-3.28-3.25 1.47-3.25 3.28 1.45 3.28 3.25 3.28Zm38.9 53.75c2.8 0 5.08-2.29 5.08-5.13s-2.27-5.13-5.08-5.13-5.08 2.3-5.08 5.13 2.27 5.13 5.08 5.13Zm-76.08 82.32c2.62 0 4.73-2.14 4.73-4.78s-2.12-4.78-4.73-4.78-4.73 2.14-4.73 4.78 2.12 4.78 4.73 4.78Zm-118.97-26.9c2.8 0 5.08-2.3 5.08-5.13s-2.27-5.13-5.08-5.13-5.08 2.3-5.08 5.13 2.27 5.13 5.08 5.13ZM51.92 221.84c3.53 0 6.39-2.89 6.39-6.45s-2.86-6.45-6.39-6.45-6.39 2.89-6.39 6.45 2.86 6.45 6.39 6.45Zm17.68-41.88c3.06 0 5.53-2.5 5.53-5.59s-2.48-5.59-5.53-5.59-5.53 2.5-5.53 5.59 2.48 5.59 5.53 5.59Z" style="fill:#c5bdff"/></svg>