<svg version="1.1" id="Layer_1" xmlns="http://www.w3.org/2000/svg" xmlns:xlink="http://www.w3.org/1999/xlink" x="0" y="0" viewBox="0 0 1524.6 828.7" style="enable-background:new 0 0 1524.6 828.7" xml:space="preserve"><style>.st0{fill:#9397ba}.st1{fill:none;stroke:#6e7191;stroke-width:5.37;stroke-linecap:round;stroke-linejoin:round}.st2{fill:#45425e}.st3{fill:#e7e2fe}.st5{fill:#968cf7}.st6{fill:#5d4dc4}.st7{fill:#f7f7f7}.st8{fill:#6af}.st10{fill:none;stroke:#427ed6;stroke-width:4.43;stroke-miterlimit:10}.st11{fill:#427ed6}.st13{fill:#f3ff73}.st15{fill:#e2dcfe}.st17{fill:#3a3c54}.st19{fill:#ff8645}.st20{fill:#d6502b}.st21{fill:none;stroke:#d6502b;stroke-width:4.43;stroke-miterlimit:10}.st24{fill:#b8aeff}.st25{fill:#c5bdff}.st27{fill:#3f328f}.st28{fill:none;stroke:#5d4dc4;stroke-width:4.83;stroke-linecap:round;stroke-miterlimit:10}.st30{fill:#281f70}.st32{fill:#8d7cf7}.st33{fill:none;stroke:#3f328f;stroke-width:4.88;stroke-miterlimit:10}.st34{fill:#8747cc}.st35{fill:#bc83fb}.st39{stroke-linecap:round}.st39,.st41{fill:none;stroke:#565191;stroke-width:3;stroke-miterlimit:10}.st42{fill:#ba7050}.st52{fill:#121226}.st53{fill:#6e7191}.st55{fill:none;stroke:#6e7191;stroke-width:4.88;stroke-linecap:round;stroke-linejoin:round}.st57{fill:#b6bad9}</style><path class="st0" d="M1134.3 578.7h-38.6c-12.3 0-23.8-6.1-30.7-16.4-3.3-5-8.9-7.9-14.8-7.9h-35c-5.2 0-9.5-4.3-9.5-9.5s4.3-9.5 9.5-9.5h35c12.3 0 23.8 6.1 30.7 16.4 3.3 5 8.8 7.9 14.8 7.9h38.6c5.2 0 9.5 4.3 9.5 9.5s-4.3 9.5-9.5 9.5zm390.3 45.7c0 9.1-409.6 10.2-409.6 0s409.6-9.2 409.6 0z"/><path class="st1" d="m1167.6 469.7-35.1 7.1c-7.8 1.6-13.4 8.4-13.4 16.4V508c0 9.2 7.5 16.8 16.8 16.8h35.5"/><circle class="st2" cx="1154.6" cy="568.8" r="25.9"/><path class="st3" d="M1424.7 138.2c74.2 73.2 78.8 236.1 72.4 421.6l-341.7.2c0-140.6-4.9-343.8 11.5-417 18.3-82.4 191.7-69.9 257.8-4.8z"/><radialGradient id="SVGID_1_" cx="1326.865" cy="413.05" r="165.364" gradientTransform="matrix(1 0 0 -1.58 0 1047.123)" gradientUnits="userSpaceOnUse"><stop offset="0" style="stop-color:#e0deff"/><stop offset="1" style="stop-color:#aea3f7"/></radialGradient><path d="M1174.4 572.6h304.8V390.2c0-101.7-21.8-166.5-21.8-166.5-140.5-4.1-281.9-5.7-281.9-5.7l-1.1 354.6z" style="fill:url(#SVGID_1_)"/><path class="st5" d="M1175.6 217.9c7.9 8.2 218.5 16.1 281.9 5.7-140.5-4-281.9-5.7-281.9-5.7z"/><path class="st6" d="M1275.4 520c-22.2 2.9-87.9 50.2-87.9 50.2h65.8l22.1-50.2zm132.1 20.2-25.1 7.3 15 15.1 10.1-22.4zm-47.8-7.9-29.7 12.9 21.7 12.7 8-25.6z"/><path class="st5" d="M1253.4 570.3c-3.9-75.5 57.2-55.6 93.1-18.7 9.8-34.5 36.4-20.3 50.9 1.2 10.7-32.6 31.5 8.1 31.5 8.1l-175.5 9.4z"/><path class="st6" d="m1331.5 566.1-47.9 2.6c-8.2-43.2 38.3-30.6 47.9-2.6z"/><path class="st7" d="M1403.6 156.3c9.6-6.3 46.7 40.7 37.6 47.3s-47.2-41-37.6-47.3z"/><ellipse transform="rotate(-48.677 1383.262 134.382)" class="st7" cx="1383.2" cy="134.4" rx="6.5" ry="9.5"/><path class="st2" d="M1475.9 604.5v9.9c0 5.3-4.3 9.5-9.5 9.5H1446c-5.3 0-9.5-4.3-9.5-9.5v-9.9h39.4zm-259.9 0v9.9c0 5.3-4.3 9.5-9.5 9.5H1186c-5.3 0-9.5-4.3-9.5-9.5v-9.9h39.5z"/><path class="st8" d="M1145.5 450.6c.1-4.2 4-7.3 8.1-6.3 33.7 8.2 62.3 55.7 79.7 80.1 13 18.3 34.1 29.1 56.5 29.1h209.6c5.2 0 9.3 4.2 9.3 9.3v36.6c0 5.2-4.2 9.4-9.4 9.4H1152c-5.3 0-9.5-4.3-9.4-9.6l2.9-148.6z"/><defs><path id="SVGID_00000149351104871361500160000006961702842921278110_" d="M1145.5 450.6c.1-4.2 4-7.3 8.1-6.3 33.7 8.2 62.3 55.7 79.7 80.1 13 18.3 34.1 29.1 56.5 29.1h209.6c5.2 0 9.3 4.2 9.3 9.3v36.6c0 5.2-4.2 9.4-9.4 9.4H1152c-5.3 0-9.5-4.3-9.4-9.6l2.9-148.6z"/></defs><clipPath id="SVGID_00000125571341445664769020000010689988030937713825_"><use xlink:href="#SVGID_00000149351104871361500160000006961702842921278110_" style="overflow:visible"/></clipPath><g style="clip-path:url(#SVGID_00000125571341445664769020000010689988030937713825_)"><path class="st10" d="M1142.1 578.1c134.9 0 135.4-6.1 164.7 36.7m159.1-76.7v97.2"/><path class="st11" d="M1467.7 572.5c5.4.1 9.8 4.5 9.8 10s-4.4 9.9-9.8 10v-20z"/></g><path d="M1153.6 444.3c32.2 6.5 55.6 42.5 73.3 67.7 4.8 6.8 9.2 14 15.1 19.9 2.9 2.9 6.1 5.6 9.5 7.9 10.2 7 22.2 11.2 34.6 11.9 7.1.3 18 .1 25.2.2 51.2.1 136.4.4 186.9.7 5.8-.6 11.5 4.4 10.5 10.4-.8-5.2-5.4-8.8-10.5-8.3-50.2.4-135.9.6-186.9.7-7.5-.1-18 .2-25.4-.1-13-.7-25.8-5-36.5-12.4-3.6-2.4-6.9-5.3-10-8.3-6.1-6.1-10.6-13.4-15.5-20.4-17.9-25.3-40.2-59.5-70.3-69.9z" style="fill:#8fd4ff"/><circle class="st10" cx="1177.9" cy="510.9" r="13"/><circle class="st13" cx="1189.3" cy="548.5" r="7"/><circle class="st11" cx="1212.1" cy="548.5" r="7"/><path d="m1425 569.1 17.2 24.9m-34.4-24.9L1425 594m-34.3-24.9 17.2 24.9m-34.4-24.9 17.2 24.9" style="fill:none;stroke:#427ed6;stroke-width:4.43;stroke-linecap:round;stroke-miterlimit:10"/><circle class="st15" cx="1426.8" cy="291.1" r="5.9"/><circle class="st15" cx="1249.1" cy="364.9" r="5.9"/><circle class="st15" cx="1442.1" cy="425" r="5.9"/><circle class="st15" cx="1239.5" cy="258" r="5.1"/><path class="st15" d="M1376.7 327.8c-2.8 0-5.1-2.3-5.1-5.1s2.3-5.1 5.1-5.1 5.1 2.3 5.1 5.1-2.3 5.1-5.1 5.1z"/><circle class="st15" cx="1215" cy="277.4" r="7.3"/><circle class="st15" cx="1392" cy="261.3" r="7.3"/><circle class="st15" cx="1202.9" cy="414.7" r="7.3"/><path class="st0" d="M416.4 563.8H380c-5.2 0-9.5-4.3-9.5-9.5s4.3-9.5 9.5-9.5h36.4c6.2 0 12.3-2.7 16.5-7.3 7.8-8.6 18.9-13.5 30.5-13.5h36.4c5.2 0 9.5 4.3 9.5 9.5s-4.3 9.5-9.5 9.5h-36.4c-6.3 0-12.2 2.6-16.5 7.3-7.8 8.6-19 13.5-30.5 13.5z"/><path class="st2" d="M498 476.3 481 494c-3.8 3.9-5.9 9.2-5.9 14.7V558c0 5.8 2.4 11.3 6.5 15.3L498 589V476.3z"/><path class="st0" d="M408.6 627.5c0 9.1-408.6 10.2-408.6 0s408.6-9.1 408.6 0z"/><path class="st3" d="M377.9 566H27.4c0-138.3 1.5-303.4 44.4-377.1C146.1 61.5 316.7 25.4 363 218.2c16.4 67.5 17.3 227.8 14.9 347.8z"/><radialGradient id="SVGID_00000181796167676206231400000005456425116760637577_" cx="204.592" cy="413.623" r="164.389" gradientTransform="matrix(1 0 0 -1.55 0 1038.174)" gradientUnits="userSpaceOnUse"><stop offset="0" style="stop-color:#e0deff"/><stop offset="1" style="stop-color:#aea3f7"/></radialGradient><path style="fill:url(#SVGID_00000181796167676206231400000005456425116760637577_)" d="M45.4 566h317.9c3.6-256.4-16.3-334.9-16.3-334.9s-154.9-7.5-274.3-1.9C44.8 313.4 45.4 444.1 45.4 566z"/><path class="st5" d="M72.7 229.2c82.5 17.5 274.3 1.9 274.3 1.9s-154.9-7.6-274.3-1.9z"/><path class="st1" d="m369.1 399.2 38.9 7.5c6.7 1.3 11.5 7.2 11.5 14V454c0 5.9-3.6 11.1-9 13.3l-36.2 14.1"/><circle class="st17" cx="64.6" cy="611.1" r="15.6"/><path class="st17" d="M383.5 518.1c42.3 34.4 4.3 68.8 4.3 68.8l-4.3-68.8z"/><circle class="st17" cx="345.1" cy="611.1" r="15.6"/><path class="st7" d="M323.1 204.4c10.3-2.2-21.7-57.8-32.4-56.4-10.8 1.4 22.1 58.5 32.4 56.4z"/><ellipse transform="rotate(-39.649 278.227 133.13)" class="st7" cx="278.2" cy="133.1" rx="5.5" ry="8"/><path class="st6" d="M143.9 529c-25.7 2.6-57.2 31-57.2 31l25 10.2 32.2-41.2zm-68.3 21c-20.9 4.1-45 21.8-45 21.8l30.5 1.5L75.6 550zm146.7-5-39.4 9.1 26.6 15.8 12.8-24.9z"/><path class="st5" d="M54.7 573.2c6.3-33.3 49.1-28.6 53.8-7.9 9.9-48 66.9-48.6 94.9-4.2 4.7-22.1 49.2-26.3 74.6 8.8 25.4 35.1-223.3 3.3-223.3 3.3z"/><path d="M189.1 570.9c-33.6-38.5-60-20.8-51.2 0 8.8 20.8 51.2 0 51.2 0z" style="fill:none;stroke:#5d4dc4;stroke-width:4.35;stroke-miterlimit:10"/><path class="st6" d="M218.1 568.6c1.2-19.1 26.4-17.3 36 0 9.8 17.3-36 0-36 0z"/><path class="st19" d="M25.1 560.6H384c3.6 0 6.6 2.9 6.6 6.6V606c0 3.6-2.9 6.6-6.6 6.6H25.1c-3.6 0-6.6-2.9-6.6-6.6v-38.8c0-3.6 3-6.6 6.6-6.6z"/><path class="st19" d="M371.4 366.5C296.5 420.3 298.1 566 298.1 566h92.5c0-88.8 2.5-151-10.8-196.9-1-3.4-5.4-4.7-8.4-2.6z"/><circle class="st20" cx="361" cy="534.9" r="9.7"/><circle class="st13" cx="331.8" cy="534.9" r="6.5"/><path class="st21" d="M390.6 581.1h-372"/><path class="st20" d="M204.5 580.6v.5c0 5.8-4.7 10.6-10.6 10.6s-10.6-4.7-10.6-10.6v-.5h21.2zm-31.7 0v.5c0 5.8-4.7 10.6-10.6 10.6s-10.6-4.7-10.6-10.6v-.5h21.2zm-31.8 0v.5c0 5.8-4.7 10.6-10.6 10.6s-10.6-4.7-10.6-10.6v-.5H141zm-31.7 0v.5c0 5.8-4.7 10.6-10.6 10.6s-10.6-4.7-10.6-10.6v-.5h21.2z"/><defs><path id="SVGID_00000088818847748495911770000016984897548686090680_" d="M371.4 366.4C296.5 425.8 298.1 566 298.1 566h92.5c0-98.2 2.5-146.1-10.8-196.8-1-3.7-5.4-5.2-8.4-2.8z"/></defs><clipPath id="SVGID_00000088101003056993972070000003903903882189749926_"><use xlink:href="#SVGID_00000088818847748495911770000016984897548686090680_" style="overflow:visible"/></clipPath><path class="st21" d="M388.5 421c-36.5 6-7.2 93.8-88.8 63.9" style="clip-path:url(#SVGID_00000088101003056993972070000003903903882189749926_)"/><path d="M371.7 366.5c-40.1 36.8-59.9 88.2-68.1 141.1-2.8 18.2-4.3 36.7-3.7 55.1h-2.1c-76.7 0-171-.4-247.6-.9-4.5 0-20.4-.1-24.9-.2-3.3.1-6.3 2.2-6.8 5.6-1-4.3 3.3-7.7 7.3-7.5 14.7-.1 44.7-.3 59.7-.4 63-.4 149.2-.7 212.3-.7l-2 2.1c-.7-18 .8-36 3.5-53.8 7.8-49.2 29.6-111.5 72.4-140.4z" style="fill:#ffc6ad"/><circle class="st15" cx="280.5" cy="349.6" r="5.5"/><circle class="st15" cx="106.1" cy="489.9" r="5.5"/><circle class="st15" cx="90" cy="289" r="5.5"/><circle class="st15" cx="310.3" cy="370.9" r="7.8"/><circle class="st15" cx="273.1" cy="504.8" r="6.6"/><circle class="st15" cx="132.4" cy="273.1" r="7.1"/><circle class="st15" cx="124.8" cy="343.2" r="7.1"/><circle class="st15" cx="314.4" cy="280.7" r="7.1"/><circle transform="rotate(-80.781 252.755 278.804)" class="st15" cx="252.8" cy="278.8" r="7.1"/><path class="st3" d="M929.8 128.9H573.9c-52.9 0-75.5 14.7-75.5 79.4v456.5H1018V211.2c0-65.7-31.4-82.3-88.2-82.3z"/><path class="st7" d="M880.9 149.3c-.8 10.6 59.2 11.3 60.8 2.8 1.7-8.7-60-13.5-60.8-2.8z"/><ellipse transform="rotate(-51.191 973.976 165.757)" class="st7" cx="973.9" cy="165.7" rx="10.4" ry="14.4"/><path class="st5" d="M1001.4 217.9v446.8H515.9V223c0-2.8 2.3-5 5.1-4.9 10.9.4 38.5 1.4 75 2.2 6.1.1 12.5.3 19.1.4 10 .2 20.5.3 31.3.5 61.7.7 135 .4 195.6-3.2 133-8 159.4-.1 159.4-.1z"/><path class="st24" d="M1001.4 217.9c-143.1 17.1-352.9 3.3-354.9 3.2 61.7.7 135 .4 195.6-3.2 132.9-7.9 159.3 0 159.3 0z"/><path class="st25" d="M615.2 220.6c-6.6-.1-13-.2-19.1-.4 1.1-4.2 4.9-7.4 9.5-7.4s8.6 3.4 9.6 7.8z"/><path class="st6" d="M988.8 554.8s-10.6 45.7-50.1 76.6c-15.5 12.1-35.4 22-60.8 25.9-.3 0-.5.1-.8.1-28.6 4.3-74.8 6-124.7 6.3-24.8.1-50.6-.1-75.6-.5-84.9-1.4-160.8-5.1-160.8-5.1v-26.3s8.7-23.5 42.4-7.4c0 0 35.8-16.3 77.1 16.2 0 0 20.5-24.5 47.2.7 17.7-1.2 33.1-3.8 46.8-7.4 21.7-5.8 39.3-14 55.7-23.2 16.2-9 31.3-18.8 47.8-27.8 35.7-19.1 78.5-34.2 155.8-28.1z"/><path d="M938.7 631.5c-15.5 12.1-35.4 22-60.8 25.9-.3 0-.5.1-.8.1-42.8 0-48-45.8-91.9-46.6 16.2-9 31.3-18.8 47.8-27.8 32.3 3.6 83.6 14.7 105.7 48.4z" style="fill:#7160e0"/><path class="st27" d="M752.3 663.8c-24.8.1-50.6-.1-75.6-.5 5.7-7.1 10.6-16 5.9-21.8 17.7-1.2 33.1-3.8 46.8-7.4 8.1 6.2 17.3 15.8 22.9 29.7z"/><circle class="st25" cx="660.2" cy="589.3" r="5.6"/><circle class="st25" cx="840" cy="312.8" r="7.3"/><circle class="st25" cx="734.8" cy="319.8" r="5.5"/><circle class="st25" cx="768.4" cy="274.5" r="4"/><circle class="st25" cx="643" cy="357.8" r="7.9"/><circle class="st25" cx="878.3" cy="440.4" r="7.3"/><circle class="st25" cx="805.7" cy="364.4" r="4.8"/><circle class="st25" cx="925.5" cy="280.3" r="5.5"/><circle class="st25" cx="562" cy="273.3" r="7.3"/><circle class="st25" cx="542.6" cy="484.7" r="4.9"/><circle class="st25" cx="579.9" cy="509.8" r="6.5"/><circle class="st25" cx="735.9" cy="512.5" r="4.6"/><circle class="st25" cx="725.4" cy="608.2" r="5.8"/><circle class="st25" cx="684" cy="283.7" r="5.3"/><circle class="st25" cx="603" cy="355.1" r="5"/><path class="st24" d="M686.6 574.3c-41.1-28-32.9-65-32.9-65-112.2-16.8-93.2-70.6-60.7-67.1-73-39.6-56.2-53.2-34.4-43.6.8.4 1.6-.6 1-1.3-22.9-28-11.7-37.1-1.8-29.7 4.2 3.1 8.2 9.3 9.1 18.3 13-6.6 24-8.2 31.2-5 10.1 4.6 13.1 18.7 4.6 42.2 2.2-.6 4.3-1 6.4-1.3 19.5-2.5 34.2 7.8 40.3 21.8 4.9 11.2 4.3 24.8-3.8 35.9 31.5 6.6 33.5 23.5 21.3 29.8 24.9 14.6 24.8 48.3 19.7 65z"/><path class="st15" d="M649.3 443.5c-4.9 1.5-10.6 1.8-16.5.6-13.8-2.7-23.7-12.4-23.7-22.5 19.4-2.4 34.1 8 40.2 21.9zM598 380.8c-1.9 7.8-11.2 13.7-22.4 13.7-12.6 0-22.8-7.5-22.8-16.8 0-3.9 1.8-7.5 4.9-10.3 4.2 3.1 8.2 9.3 9.1 18.3 13.1-6.5 24-8.1 31.2-4.9z"/><path class="st28" d="M700.4 661.7c-22-152.9-16.1-120.3-131.1-269.2"/><path class="st24" d="M708.5 559.3s-19.7-19.8-7.5-34.5c0 0-30.7-34.7-13.9-88.3 0 0-22.4-12.3-9.6-53.9 1.9-6.3 4.7-13.2 8.4-20.9 9 15.5 17.1 24.4 19.5 37.1 1.5 8.1.8 17.7-3.4 31.4-.6 1.9-1.2 3.9-2 6 5.2 10.5 8.8 22.1 11.2 34 6.8 33.9 3.7 70-2.7 89.1z"/><path class="st15" d="M705.3 398.8c-4-.3-8.2-1.3-12.3-3.1-7-3-12.4-7.9-15.6-13.2 1.9-6.3 4.7-13.2 8.4-20.9 9 15.6 17.1 24.5 19.5 37.2zm5.8 71.4c-3.8-1.4-7.6-3.8-10.9-7.1-9.3-9.4-11.3-22.5-4.5-29.3 1.7-1.7 3.8-2.9 6.2-3.5-.6 1.9-1.2 3.9-2 6 5.1 10.5 8.8 22.1 11.2 33.9z"/><path class="st28" d="M686.3 374.3c21.2 160.8 30.1 287.8 30.1 287.8"/><ellipse transform="rotate(-7.693 962.515 334.606)" class="st27" cx="962.4" cy="334.5" rx="17.1" ry="14.6"/><path class="st27" d="M930.2 428.8c-21.7 4.5-42.5-6.7-46.4-25.3-3.9-18.5 10.5-37.3 32.2-41.9 21.7-4.6 43.5 9.7 47.6 28.2 5.1 23.2-6.6 33.4-33.4 39z"/><path class="st6" d="M996.6 359.2c-4.9-37.3-31.5-29.8-34.5-12.2-28.5-11-58.4 32-8.7 71.5-83-16.6-75.5 74.7-25.9 84.3-27.4 10.6-27.9 50.3 23 53.8 50.9 3.4 46.1-197.4 46.1-197.4z"/><path d="M959.1 344c20.3 6.8 26.9 32 26.9 32m-43 38.8c15.2 4.5 33.2 21.4 33.2 21.4m-48.8 66.6c18.7-8.2 37.3 2.2 37.3 2.2" style="fill:none;stroke:#3f328f;stroke-width:3.9;stroke-linecap:round;stroke-miterlimit:10"/><ellipse transform="rotate(-8.419 913.633 464.822)" class="st30" cx="913.4" cy="464.7" rx="11.2" ry="14.2"/><ellipse transform="rotate(-15.783 927.091 429.444)" class="st30" cx="927" cy="429.3" rx="10.4" ry="5.4"/><ellipse transform="rotate(-20.96 948.75 363.935)" class="st30" cx="948.7" cy="363.9" rx="12.9" ry="8.9"/><ellipse transform="rotate(-45.001 948.079 397.391)" class="st30" cx="948.1" cy="397.4" rx="5.1" ry="7.4"/><ellipse transform="rotate(-80.119 938.134 447.926)" class="st30" cx="938.2" cy="447.9" rx="5.2" ry="6.1"/><ellipse transform="rotate(-30.458 930.156 519.664)" class="st30" cx="930.1" cy="519.6" rx="11.7" ry="10"/><ellipse transform="rotate(-59.589 903.413 390.926)" cx="903.4" cy="390.9" rx="17.3" ry="11" style="fill:#181345"/><ellipse transform="rotate(-25.776 921.048 405.93)" class="st6" cx="921.2" cy="405.9" rx="6.3" ry="4.6"/><ellipse transform="rotate(-56.77 967.075 384.524)" class="st32" cx="967.1" cy="384.5" rx="4.7" ry="6.4"/><ellipse transform="rotate(-24.147 942.928 476.953)" class="st32" cx="942.8" cy="477" rx="12.8" ry="9.4"/><path class="st30" d="M605.3 608.1c16.1.2 23 8.8 23 8.8l-17.5 30.5-16.7-2.8 11.2-36.5z"/><path class="st6" d="M641.1 569s-.4.4-1.1 1.2c-2.3 2.5-7.7 8.9-14.6 18.6-2.1 3-4.4 6.4-6.7 10.1-7.1 11.1-16.3 31.1-23.2 47.5l-11.3-2.6s6.7-20.5 16.7-52.8c.9-2.8 1.8-5.8 2.7-8.8 2.3-7.6 4.8-15.9 7.4-24.9-.1-.2 27.1-3 30.1 11.7z"/><path class="st30" d="M641.1 569c-.3.5-.7.9-1.1 1.2-6.8 5.7-22.1-6.6-29.1-13 0-.1 27.2-2.9 30.2 11.8z"/><path class="st27" d="M625.4 588.8c-2.1 3-4.4 6.4-6.7 10.1 0 0-8.5 1.6-17.9-8 .9-2.8 1.8-5.8 2.7-8.8 3.9 3.1 10.9 7 21.9 6.7zm-64.6 58.5-10.6-.2s-2.3-22.1-21.4-41.7c-2.4-2.5-4.9-4.7-7.6-6.9 0 0-2.8-7.1 15.5-18.6 0 0 3.9 4.6 8.6 13 6.4 11.6 14.3 30.4 15.5 54.4z"/><path class="st6" d="M545.2 592.9c-5 7.8-16.5 12.5-16.5 12.5-2.4-2.5-4.9-4.7-7.6-6.9 0 0-2.8-7.1 15.5-18.6.1 0 4 4.6 8.6 13z"/><path class="st27" d="M665.4 620.8c-8.1 1.9-15 4.1-20.7 6.4-4.6 1.8-8.4 3.7-11.7 5.6-13.1 7.5-16.2 14.4-16.2 14.4l-14.5 4.4c5.8-14.2 12.8-25 19.7-33.1 3-3.6 6.3-7 9.8-10.2 8.3-7.5 14.6-10.3 14.6-10.3 20.1 11.3 19 22.8 19 22.8zM631 538c-.3.3-.6.7-.9 1-7 8.1-13.1 16.7-18.4 25.4-3 4.9-5.7 9.8-8.2 14.7-18.5 36.1-23.8 69.2-23.8 69.2l-11-1.9c6.5-29 11.5-55.5 15-76.1 1-6 2-11.9 3-17.9 2.5-15.7 3.7-25 3.7-25C613.6 522.7 631 538 631 538z"/><path class="st6" d="M574.6 580.2c1.3 19 1 41.5-2.9 66.2l-15-1.8s0-30.2-9.7-63.5c-1.2-4.2-2.6-8.5-4.2-12.8-2.9-8-6.5-16-10.7-23.6 0 0-6-9.2 31.1-25.5 0 0 6.3 16.9 9.8 44.5.7 5.1 1.2 10.7 1.6 16.5z"/><path class="st30" d="M630.1 539.1c-5.6 1.5-32.4-1.1-39.7-11.6C613.6 522.7 631 538 631 538c.4.5 0 .8-.9 1.1zm35.3 81.7s-13.4-4.6-19-22.7c20.1 11.2 19 22.7 19 22.7z"/><path class="st27" d="M563.8 519c8.2 23.2 12.9 47.7 13.8 72.4.1 3.5.1 7 0 10.7l-4.4-.1c-.2-13.8-1.3-27.7-3-41.4-1.7-13.8-4.3-27.5-7.4-41.1l1-.5z"/><path class="st30" d="M563.2 519.2c-.3 14.2-24.6 32.2-31.1 25.5 0 0-6-9.2 31.1-25.5zm48.6 45.2c-3 4.9-5.7 9.8-8.2 14.7-8.9-1.5-15.6-5.5-19.8-8.8 1-6 2-11.9 3-17.9 10.1 10.5 25 12 25 12zm33 62.2-.1.6c-4.6 1.8-8.4 3.7-11.7 5.6-5.2-3.4-8.8-9.4-11.1-14.3 3-3.6 6.3-7 9.8-10.2 3.5 13.4 13.1 18.3 13.1 18.3z"/><path class="st27" d="M574.6 580.2s-15.7 5.6-27.6.9c-1.2-4.2-2.6-8.5-4.2-12.8 9.4 5.9 30.2-4.6 30.2-4.6.7 5.1 1.2 10.7 1.6 16.5z"/><path class="st32" d="m601.4 607.7-7.5 17.9-5.4 12.8-2.3 5.4-15.2-1.7c-.1-2.8-.3-6-.5-9.2-.3-4.8-.8-9.8-1.2-14.6-1.2-11.9-2.5-22.1-2.5-22.1 20.3-.6 34.6 11.5 34.6 11.5z"/><path class="st27" d="M601.4 607.7s-21.3-1.5-34.5-11.5c20.1-.6 34.5 11.5 34.5 11.5z"/><path class="st24" d="m593.9 625.6-5.4 12.8c-6.8 0-13.2-2.7-17.9-5.5-.3-4.8-.8-9.8-1.2-14.6 9.1 6.3 18.3 7.5 24.5 7.3z"/><path class="st30" d="M641 569.4c-15.5 20.7-28.3 43.2-39.6 66.4l-1.2-.4c5.7-18.8 15.5-36.2 27.1-51.9 3.9-5.3 8.2-10.2 12.7-14.9l1 .8z"/><path class="st27" d="M798 429.3c1.7 29.2 3.6 58.7 10.3 87.2 1.5 5.5 3.3 12 5.6 17.1 3.1 7.6 7.7 14.6 13.9 20.1 3.5 3.2 7.5 6.1 11.2 9.7 3.7 3.5 7 7.6 9.7 11.9 8 12.9 11.8 27.8 15 42.4 2.1 9.7 3.5 19.5 5 29.3l-5.6.8c-.7-4.8-1.3-9.7-2.2-14.5-2.4-14.3-5.3-28.8-10.5-42.3-3.5-8.8-8.1-17.1-15.1-23.6-7.2-6.6-15.9-12.6-21-21.4l-2-3.3c-.5-1.2-2-4-2.5-5.2-.5-1.2-1.7-4.1-2.1-5.3-1.5-4.1-3.2-10.1-4.3-14.4-6.8-29-8.6-58.7-10.2-88.2l4.8-.3z"/><path class="st33" d="M815.5 404.2c6.8 82.2 10.3 95.3-11.5 104.7m-32.7-91.3c4.9 35 13.8 41.8 25.8 42.2"/><path class="st33" d="M836.2 420.2c1.5 35 2.7 47.6-15.7 48.9m24.9-5c-.8 42.7 6.9 46.6 17.1 51.2"/><path class="st33" d="M862.3 478.2c8 51.8-9.8 52.7-26.2 56.9l-1.9 27.4m-25.6-35.8c-43.4-6.6-14.9-60-62.9-53.9m13.3-28.1 6.5 30.7m85 108.5c-39 .2-39.8-10.8-61.8-47.2"/><path class="st27" d="M857.4 604.9c15.6-7.2 22.6-20.4 25-37 2.3-13.9 2.8-34.7 3.8-49l4.9.3c-.9 14.8-1.2 35-3.5 49.5-1.3 8.4-3.5 16.9-8.2 24.2-4.6 7.5-11.8 13.2-19.5 16.9l-2.5-4.9z"/><path class="st33" d="M869.8 534c-2.4 31.6 4.5 33.9 14.5 38.6"/><path class="st27" d="M847.7 646.1c-5.7-31-58.4-26.6-84.9-62-3.3-4.3-6.1-9-8.4-13.9l4.4-2.1c4.4 9.1 10.6 17.3 18.5 23.6 11.9 9.8 26.7 15.4 41 21.2 9.9 4.2 20.3 8.4 27.8 16.8 3.8 4.3 6.5 9.7 7.5 15.3l-5.9 1.1z"/><path class="st33" d="M755.6 533.2c32.4 42.1 38.6 50 26.4 65.3"/><path class="st27" d="M829.7 621.3c-13.7 23-32.5 15.5-50.6 2.9-5.1-3.5-10-7.1-15-10.5l2.8-4c5.1 3.4 10 7 15 10.3 15.5 10.2 31.3 18.5 42.7-1.6l5.1 2.9z"/><ellipse transform="rotate(-23.33 764.377 533.963)" class="st15" cx="764.3" cy="533.9" rx="22.3" ry="4.5"/><ellipse transform="rotate(-18.103 768.447 567.185)" class="st15" cx="768.5" cy="567.2" rx="25.9" ry="5.3"/><ellipse transform="rotate(-17.181 765.57 589.947)" class="st24" cx="765.6" cy="590" rx="18.2" ry="3.7"/><ellipse transform="rotate(-22.542 768.028 614.453)" class="st15" cx="768" cy="614.4" rx="13.9" ry="4.6"/><ellipse transform="matrix(.9988 -.0499 .0499 .9988 -22.794 44.369)" class="st15" cx="877.3" cy="478.7" rx="23.6" ry="4.8"/><ellipse transform="matrix(.9988 -.0499 .0499 .9988 -22.073 43.132)" class="st24" cx="852.9" cy="463.7" rx="13.3" ry="4.5"/><ellipse transform="matrix(.9988 -.0499 .0499 .9988 -19.883 42.75)" class="st15" cx="846.3" cy="419.6" rx="18.2" ry="3.7"/><ellipse transform="matrix(.9988 -.0499 .0499 .9988 -19.167 41.009)" class="st24" cx="811.8" cy="404.4" rx="18.6" ry="3.8"/><ellipse transform="rotate(-7.372 771.386 418.543)" class="st15" cx="771.5" cy="418.6" rx="17.2" ry="3.5"/><ellipse transform="matrix(.9988 -.0499 .0499 .9988 -20.532 40.528)" class="st15" cx="801.5" cy="431.5" rx="15.4" ry="5.2"/><ellipse transform="rotate(-10.241 753.799 446.285)" class="st24" cx="753.9" cy="446.3" rx="18.5" ry="3.8"/><ellipse transform="rotate(-72.18 747.161 473.503)" class="st15" cx="747.2" cy="473.5" rx="14.1" ry="3.9"/><ellipse transform="rotate(-14.117 781.545 485.849)" class="st15" cx="781.7" cy="485.8" rx="17" ry="5.6"/><ellipse transform="rotate(-86.59 826.966 486.466) scale(.99997)" class="st24" cx="827" cy="486.5" rx="5.1" ry="15.8"/><ellipse transform="rotate(-17.918 813.403 544.973)" class="st24" cx="813.4" cy="545" rx="20.7" ry="4.2"/><ellipse transform="rotate(-18.029 789.989 537.356)" class="st15" cx="789.9" cy="537.3" rx="13.2" ry="4.2"/><ellipse transform="rotate(-27.526 817.767 605.148)" class="st24" cx="817.9" cy="605.1" rx="20.1" ry="6.5"/><ellipse transform="rotate(-20.109 847.62 564.775)" class="st15" cx="847.6" cy="564.7" rx="22.7" ry="4.6"/><ellipse transform="matrix(.9988 -.0499 .0499 .9988 -24.656 45.575)" class="st15" cx="900.5" cy="516.6" rx="23.3" ry="4.7"/><ellipse transform="rotate(-84.62 875.577 535.347)" class="st24" cx="875.6" cy="535.4" rx="4.4" ry="14.9"/><path class="st34" d="M1338.2 352.3c24.9 11 25.9 48.4 47.2 91.9 10.6 21.7 27.6 36.5 27.3 38.4s-27.4-9.6-46.8-34.3c-20.8-26.5-44.2-57.7-44.2-80.7-.1-23 16.5-15.3 16.5-15.3z"/><ellipse transform="rotate(-53.63 1391.252 470.372)" cx="1391.2" cy="470.4" rx="2.8" ry="7"/><ellipse transform="rotate(-39.229 1370.748 450.375)" cx="1370.7" cy="450.4" rx="3.8" ry="9.7"/><ellipse transform="rotate(-34.096 1350.568 423.081)" cx="1350.4" cy="423.1" rx="4.2" ry="12.7"/><path class="st34" d="M1297.4 381.5c24.2 69.1-1.7 116.5-6.8 126.5-5.1 10.1 62.2-37.7 42.3-125.7-9.7-42.9-45.1-28.2-35.5-.8z"/><ellipse transform="rotate(-87 1320.214 428.752) scale(.99997)" cx="1320.2" cy="428.8" rx="9.3" ry="6.2"/><ellipse transform="rotate(-79.082 1316.307 459.495)" cx="1316.3" cy="459.5" rx="7.7" ry="5.2"/><ellipse transform="rotate(-66.403 1306.68 484.226)" cx="1306.8" cy="484.2" rx="5.3" ry="3.6"/><path d="m1400.8 417.4 6.1-20.6 10.2 3-6.1 20.6-10.2-3z"/><ellipse transform="rotate(-81.448 1422.998 361.545)" class="st11" cx="1423" cy="361.6" rx="40.8" ry="45.9"/><ellipse transform="rotate(-69.47 1422.808 361.481)" class="st15" cx="1422.8" cy="361.5" rx="33.6" ry="37.8"/><ellipse transform="rotate(-12.89 1447.583 358.918)" class="st7" cx="1447.7" cy="359" rx="5.4" ry="9.3"/><path class="st11" d="M1406.9 415.9c6.1 1.8 9.6 8.2 7.8 14.3l-14.4 48.9c-1.8 6.1-8.2 9.6-14.3 7.8-6.1-1.8-9.6-8.2-7.8-14.3l14.4-48.9c1.8-6.1 8.2-9.6 14.3-7.8z"/><path class="st8" d="m1391.1 428.3 1-3.3 22.1 6.5-1 3.3-22.1-6.5zM1378.5 471.4l1-3.3 22.1 6.5-1 3.3-22.1-6.5z"/><path class="st35" d="M1341.8 359.8c15.8 14.2 16.3 56.1 26.4 79.3 7 16.1 19.9 23.3 43.3 4.4 1.6-1.3 3.7.7 2.6 2.4-32.1 48.4-56.3 25-70.8 5.3-14.1-19.1-25.8-46.5-29.7-82.1-2.3-21.6 12.4-23.5 28.2-9.3z"/><path class="st34" d="M1280 374c-7.7 60.5-45.3 86.8-53.9 90.8-.6.3-.4 1.1.3 1.2 43.1 1.2 65.6-33.8 82.4-79.9 15.6-43-24.4-46.5-28.8-12.1z"/><path d="M1285.9 416.4c-3.1 7.2-9.7 9.8-11.8 4.5s1.8-14.3 7.1-16.3 7.9 4.5 4.7 11.8zm-15.8 27.1c-4.1 5-9.9 5.5-10.4.9s4.7-10.9 9.3-11.3 5.2 5.3 1.1 10.4zm-20.1 16.3c-3.6 1.8-7 .6-6.1-2.1s5.4-5 8.1-4 1.6 4.3-2 6.1z"/><path class="st35" d="M1302.5 345.1c-45.3 24-2.5 121-62.4 163.2-4.3 3 7.8 3 25.3-11.9 17.4-14.9 57.8-70.5 53.2-143.3-1.2-19.4-16.1-8-16.1-8z"/><path class="st34" d="M1315.9 238.4c28.7 28.7 47.2 37 27.3 68-10.2-16.9-27.3-68-27.3-68zm-3.3 1.1c-32.7 32.9-46.1 43.2-22.8 66.9 10.1-18.4 22.8-66.9 22.8-66.9z"/><path class="st35" d="M1345.8 346.1c-13.7 25.2-46.5 21.7-59.5 1.2-19.1-30.1 8.7-67.6 19.1-91.2 3-6.7 5.6-13.4 7.2-20 .5-1.9 3.1-1.9 3.6 0 8.8 34.4 51.4 69.8 29.6 110z"/><path class="st34" d="M1341.8 352.1c-6.1 13.7-26.3 17.8-38.2 9.3 3.5.7 6.9 1 10.3.9 10.4 0 20.1-3.3 27.9-10.2z"/><path d="M1311.8 342.7c1.3 4.1 9 4.3 10.1-.1.3-1.3 2.4-.9 2.2.4-.3 5.7-7.9 7.4-12 4.4-1.4-.7-4.2-5.1-1.6-5.6.7 0 1.2.4 1.3.9z"/><path class="st7" d="M1282.5 421.1c41.6 15.3 73.2-2.4 73.2-2.4l-22.1-51.9c-12.1 2.3-20.9 2.1-33.8 0l-17.3 54.3z"/><ellipse transform="rotate(-19.021 1317.83 379.44)" class="st8" cx="1317.8" cy="379.4" rx="7.2" ry="6.4"/><path d="M1291.2 353.4c3.3 5.9 11.4 9.3 17.5 11.1 4.3 1.3 6.9 5.6 6 10-8.2 39.6-15.1 57-15.1 57-31.6 3-45.5-22.7-45.5-22.7 24.9-20.1 23.8-48.6 35.5-55.8.6-.4 1.3-.2 1.6.4zm49.9-.3c-3.1 5.8-9.3 9.5-14 11.5-3.7 1.6-5.7 5.6-4.9 9.5 8 40.2 12.5 57 12.5 57 31.6 3 43.6-22.7 43.6-22.7-12.5-32.7-23.1-49.5-35.5-55.8-.7-.3-1.4-.1-1.7.5z" style="fill:#211d45"/><path d="M1346.1 356.2c-1.9 13.4-18.2 33.5-18.2 33.5m-40.7-32.4c6.7 24 22.1 31.6 22.1 31.6m-30.9 35.1c16.8-24.7 2-34.6-16.8-11.9m91.4 11.7c-14.2-34.8 9.9-31.6 18.8-11.9" style="fill:none;stroke:#000;stroke-width:3;stroke-linecap:round;stroke-miterlimit:10"/><path class="st8" d="m1315.2 385.4-4.6 37.2c-.1.7.1 1.5.6 2.1l5.8 7.8c1.2 1.6 3.6 1.5 4.7-.1l5.1-7.6c.4-.6.6-1.4.4-2.1l-6.4-37.4c-.2-1.4-1.4-2.4-2.8-2.4-1.4-.1-2.6 1-2.8 2.5z"/><ellipse transform="rotate(-6.898 1333.41 330.54)" cx="1333" cy="330.5" rx="14.7" ry="11.2" style="opacity:.5;fill:#e2dcfe;enable-background:new"/><path class="st39" d="M1347.8 329.7h6.9"/><path d="M1320.6 335.3c.8-7.5 11-10.9 16.6-6.1 1.7 1.1 5.1 7.1 1.9 7.7-.7.1-1.3-.3-1.5-.9-.6-1.6-1.5-2.9-2.8-3.7-3.9-2.7-9.9-.9-11.6 3.8-.4 1.5-2.8.9-2.6-.8z"/><ellipse transform="rotate(-83.102 1298.906 330.41)" class="st15" cx="1299" cy="330.4" rx="11.2" ry="14.6" style="opacity:.5"/><path d="M1310.8 336c-2.3-6.4-12.2-6.7-14.3 0-.6 1.6-2.9 1-2.8-.6.7-7.8 10.7-10.9 16.5-6 1.7 1.1 5.3 6.9 2.1 7.6-.6 0-1.2-.4-1.5-1z"/><ellipse transform="rotate(-83.102 1298.906 330.41)" class="st41" cx="1299" cy="330.4" rx="11.2" ry="14.6"/><path class="st39" d="M1284.2 329.7h-6.9"/><ellipse transform="rotate(-6.898 1333.41 330.54)" class="st41" cx="1333" cy="330.5" rx="14.7" ry="11.2"/><path class="st34" d="M235.7 360.8c23.4 13.3 20.7 50.2 37.3 95.2 8.3 22.4 23.6 38.7 23.1 40.5s-26-12.1-42.7-38.4c-17.8-28.1-37.8-61.2-35.5-83.8s17.8-13.5 17.8-13.5z"/><ellipse transform="rotate(-47.879 276.328 482.334)" cx="276.3" cy="482.3" rx="2.7" ry="7"/><ellipse transform="rotate(-33.478 258.04 460.588)" cx="258" cy="460.6" rx="3.8" ry="9.6"/><ellipse transform="rotate(-28.351 240.765 431.662)" cx="240.8" cy="431.7" rx="4.1" ry="12.6"/><path class="st34" d="M154.3 512.9c-2 0-2.9-1.1-2.9-1.1-1.1-3.2 2.7-13.7 9-18.5 8.6-6.5 1 8 1 8l-7.1 11.6zm80.2-123.6c-24 68.5 1.7 115.4 6.7 125.4s-61.6-37.3-41.9-124.6c9.6-42.6 44.7-28 35.2-.8z"/><ellipse transform="rotate(-3 211.789 436.124) scale(.99997)" cx="211.8" cy="436.1" rx="6.1" ry="9.2"/><ellipse transform="rotate(-10.918 215.71 466.675)" cx="215.7" cy="466.6" rx="5.2" ry="7.7"/><ellipse transform="rotate(-23.595 225.294 491.115)" cx="225.2" cy="491.1" rx="3.6" ry="5.3"/><path class="st35" d="M252.7 523.8c-3.3-4.1-.1-30.4-21.2-72.6-10.1-20.3-23.1-50-21.3-83.9.7-12.3 15.1-13.7 21.3-6.5 14.6 16.9 18.8 45.5 23.5 76 6.3 41.3 1.7 92-2.3 87z"/><path class="st34" d="M173.9 376.3c-13.5 59-53.1 81.3-61.9 84.4-.6.2-.5 1.1.1 1.2 42.4 5.4 68-27 89-70.9 19.6-41-19.5-48.3-27.2-14.7z"/><path d="M175.6 418.7c-3.8 6.8-10.5 8.7-12.1 3.4s3.2-13.9 8.6-15.4c5.3-1.6 7.3 5.1 3.5 12zm-18.2 25.1c-4.6 4.5-10.3 4.5-10.3-.1s5.7-10.3 10.3-10.2c4.5.1 4.5 5.8 0 10.3zM135.9 458c-3.7 1.4-7-.1-5.8-2.7s5.8-4.4 8.4-3.2c2.6 1.2 1.2 4.5-2.6 5.9z"/><path class="st42" d="m169.6 524.6-1.5-3.7-6.6-16.2-51.2-125.2 7.2-2.4L173 491l8.8 18 4.3 8.8c2.1 5.2-14.4 12-16.5 6.8z"/><path d="M179.3 503.9c-4.3 6.9-9.5 10.6-13.2 12.2l-4.6-11.3c5.1-5.1 8.9-10 11.6-13.8l6.2 12.9z" style="fill:#854535"/><path d="m144 370.7-55.1 24.1c-2.4 1-5.2 0-6.3-2.4l-14.3-30.9c-1.1-2.4-.1-5.3 2.4-6.4.1-.1.2-.1.4-.2l12.7-4.6 43.2-15.6c2.3-.8 4.8.2 5.9 2.4l5.6 11.2 7.9 15.9c1.2 2.4.2 5.3-2.2 6.4-.1.1-.2.1-.2.1z" style="fill:#1b1838"/><path d="M138.4 348.3c-28.8 13.9-45.7 8.7-54.7 2.1l43.2-15.6c2.3-.8 4.8.2 5.9 2.4l5.6 11.1z" style="fill:#38355e"/><path class="st42" d="M119.5 381.5c-3.2-7.1-10.4-4.2-7.1 3.1 2.1 4.9 8.9 1.1 7.1-3.1z"/><path class="st35" d="M195.6 354.3c-43.3 26.5 1.3 112.3-43.6 155.8-3.7 3.6 6.9 5 16.1-3.8 16.4-15.7 52.9-73.3 43.8-145.1-2.3-19.1-16.2-6.9-16.3-6.9z"/><path d="M251.8 313.6c-6.2 4.9-60.8 15.3-83.8 4.3 36.1-29.5 89.9-9.2 83.8-4.3z"/><path class="st34" d="M209.1 247.4c28.4 28.4 42.1 40.8 27.1 67.4-10.1-16.7-27.1-67.4-27.1-67.4zm-3.3 1.1c-28.9 29.1-45.7 42.8-22.6 66.4 10.1-18.3 22.6-66.4 22.6-66.4z"/><path class="st35" d="M238.8 354.2c-13.5 25-46.1 21.5-59 1.2-7.1-11.2-7.6-23.5-5-35.8 2.2-9.9 6.4-19.8 11-29 4.7-9.5 9.7-18.3 13-25.7 2.9-6.7 5.5-13.3 7.1-19.8.5-1.9 3.1-1.9 3.6 0 4.1 16.3 15.9 32.8 24.7 49.9 5 9.7 9 19.5 10.3 29.7 1.2 9.5-.2 19.3-5.7 29.5z"/><path class="st34" d="M234.9 360.1c-6.1 13.6-26.1 17.7-37.8 9.2 3.5.7 6.9.9 10.2.9 10.2 0 19.8-3.3 27.6-10.1zm9.6-35.5c-21.1.2-32.8-17.4-69.6-5.1 2.2-9.9 6.4-19.8 11-29l48.4 4.4c5 9.7 9 19.6 10.2 29.7z"/><path d="M248.4 310.3C214.6 295.2 168 315 168 315c-1.2-35.2 18.5-57.2 38.8-58.5 12.6-.8 25.3 6.2 33.5 22.9 3.9 8 6.8 18.3 8.1 30.9z" style="fill:#ffbe54"/><path d="M240.3 279.4c-7.9 2.6-24.1 3.9-33.5-22.9 12.5-.8 25.3 6.2 33.5 22.9z" style="fill:#ffe97a"/><path d="M168.9 317.9c42.1-12.7 71.3-7 81.4-4.1 1.6.5 3.1-1.2 2.4-2.7-12.4-27-67.2-19.4-86 3.7-1.3 1.4.3 3.7 2.2 3.1z" style="fill:#eb9540"/><path d="M200 301.4c1.1-24.1-3.3-40.5-3.3-40.5m23 40.5c1.1-24.1-3.3-40.5-3.3-40.5m15.9 37.7c-1.1-11 7.7-13.1 7.7-13.1m-59.3 20.8c1.1-11-7.7-13.1-7.7-13.1" style="fill:none;stroke:#eb9540;stroke-width:3;stroke-linecap:round;stroke-miterlimit:10"/><path d="M205.1 350.8c1.3 4.1 8.9 4.3 10-.1.4-1.3 2.4-.9 2.2.4-.3 5.6-7.8 7.3-11.9 4.4-1.4-.7-4.2-5-1.5-5.6.6 0 1.1.4 1.2.9zm8.8-7.3c.8-7.5 10.9-10.8 16.5-6 1.7 1.1 5.1 7 1.9 7.6-.7.1-1.2-.3-1.5-.9-.6-1.6-1.5-2.9-2.8-3.7-3.9-2.7-9.9-.9-11.4 3.7-.6 1.6-3 .9-2.7-.7zm-9.7.7c-2.3-6.4-12.1-6.6-14.2 0-.6 1.5-2.9 1-2.8-.6.6-7.8 10.6-10.8 16.3-6 1.7 1.1 5.2 6.9 2.1 7.5-.6.1-1.2-.3-1.4-.9z"/><path class="st0" d="M464.5 737.3c0 10.4 593.1 11 593.1 0s-593.1-10.5-593.1 0z"/><path d="M1023.7 409.8h26c6.4 0 11.5 5.1 11.5 11.5v16.8c0 6.4-5.2 11.5-11.5 11.5h-26" style="fill:none;stroke:#6e7191;stroke-width:4.98;stroke-miterlimit:10"/><path d="M1023.7 429.5h12c6.4 0 11.5 5.1 11.5 11.5v23.8c0 6.4-5.2 11.5-11.5 11.5h-12" style="fill:none;stroke:#4f516e;stroke-width:6.08;stroke-miterlimit:10"/><path class="st2" d="M1028.2 375.9V446s30-35.8 0-70.1zm2.5 119.6 14.1 9.5c4.4 2.9 7 7.8 7 13.1v50.8c0 4.3-1.8 8.5-4.9 11.5l-16.2 15.2V495.5z"/><circle class="st52" cx="548.7" cy="717.3" r="18.4"/><circle class="st52" cx="967" cy="717.3" r="18.4"/><path class="st0" d="M1029.6 328.4v346.1c0 29.4-11.6 46.8-48.9 46.8H535.2c-45.2 0-44.7-22.1-44.7-53.6 0-16.8 27.1-41.6 162.6-17.3 3.9.7 7.7 1.3 11.6 2 5.7.9 11.3 1.8 17 2.5 76.4 10.1 148.8 4.3 200.8-34.1-3.9-3.2-7.3-7.1-10-11.7-13.8-23.1-4.9-53.8 20-68.7 16.2-9.7 35.2-10.2 50.2-3 25.4-68.1 25-151.1 47.5-193.6 11.8-22.5 39.4-24.2 39.4-15.4z"/><circle class="st13" cx="527.2" cy="698.2" r="6.2"/><ellipse transform="rotate(-37.001 1000.138 402.447)" class="st53" cx="1000.1" cy="402.4" rx="12.3" ry="11.4"/><path d="m1003.6 390.2-6.9 24.6" style="fill:none;stroke:#4f516e;stroke-width:4.43;stroke-linecap:round;stroke-miterlimit:10"/><ellipse transform="rotate(-11.564 999.587 437.761)" class="st55" cx="999.7" cy="437.7" rx="8.2" ry="7.6"/><ellipse transform="rotate(-11.564 999.587 464.821)" cx="999.7" cy="464.8" rx="6.1" ry="5.7" style="fill:#4f516e"/><ellipse transform="rotate(-11.564 999.583 480.924)" class="st53" cx="999.7" cy="480.9" rx="6.1" ry="5.7"/><ellipse transform="rotate(-11.564 999.589 513.1)" class="st52" cx="999.7" cy="513" rx="7.6" ry="7"/><ellipse transform="rotate(-11.564 999.589 513.1)" class="st55" cx="999.7" cy="513" rx="14.4" ry="13.4"/><path class="st57" d="M955.6 596.3c9.6 43.2 50.2-.8 74 26.3v18.1c-51.3 17.1-86-13.3-88.2-27.3l14.2-17.1zM659.3 721.2h-40s-.2-51.6 50.2-68.9c5.7.9 11.3 1.8 17 2.5 4.2 33.1-41.1 20.3-27.2 66.4z"/><circle class="st52" cx="956.8" cy="657.8" r="4.7"/><circle class="st52" cx="973.6" cy="657.8" r="4.7"/><circle class="st52" cx="990.4" cy="657.8" r="4.7"/><circle class="st52" cx="973.6" cy="630.7" r="4.7"/><circle class="st52" cx="990.4" cy="630.7" r="4.7"/><circle class="st52" cx="1007.2" cy="657.8" r="4.7"/><circle class="st52" cx="965.2" cy="644.3" r="4.7"/><circle class="st52" cx="982" cy="644.3" r="4.7"/><circle class="st52" cx="982" cy="617.6" r="4.7"/><circle class="st52" cx="998.8" cy="644.3" r="4.7"/><ellipse transform="rotate(-12.439 921.065 583.607)" class="st7" cx="921" cy="583.6" rx="39.8" ry="37"/><ellipse transform="rotate(-12.439 921.065 583.607)" class="st55" cx="921" cy="583.6" rx="41.7" ry="38.8"/><ellipse transform="rotate(-12.439 921.065 583.607)" cx="921" cy="583.6" rx="13.7" ry="12.8" style="fill:none;stroke:#a4a6bd;stroke-width:4.43;stroke-miterlimit:10"/><ellipse transform="rotate(-12.439 921.065 583.607)" cx="921" cy="583.6" rx="6.6" ry="6.1" style="fill:#a4a6bd"/><ellipse transform="rotate(-12.439 950.308 584.478)" class="st53" cx="950.2" cy="584.4" rx="3.7" ry="3.5"/><ellipse transform="rotate(-12.439 943.856 565.054)" class="st53" cx="943.8" cy="565" rx="3.7" ry="3.5"/><ellipse transform="rotate(-12.439 925.614 554.94)" class="st53" cx="925.5" cy="554.9" rx="3.7" ry="3.5"/><ellipse transform="rotate(-12.439 904.221 560.4)" class="st53" cx="904.1" cy="560.4" rx="3.7" ry="3.5"/><ellipse transform="rotate(-12.439 893.021 576.594)" class="st53" cx="892.9" cy="576.6" rx="3.7" ry="3.5"/><ellipse transform="rotate(-12.439 895.046 595.543)" class="st53" cx="895" cy="595.5" rx="3.7" ry="3.5"/><ellipse transform="rotate(-12.439 908.06 608.4)" class="st53" cx="908" cy="608.4" rx="3.7" ry="3.5"/><path d="m914.7 555.3 6.3 28.2" style="fill:none;stroke:#a4a6bd;stroke-width:4.43;stroke-linecap:round;stroke-miterlimit:10"/><defs><path id="SVGID_00000124161848105666516350000014700573647441004432_" d="M490.6 667.6c0 31.5-.5 53.6 44.7 53.6h445.5c37.3 0 48.9-17.3 48.9-46.8v-346c0-8.8-27.6-7.1-39.4 15.4-28.1 53.4-20.4 170.6-72.7 242-56 76.3-158.3 83.6-264.2 64.6-135.8-24.4-162.8.4-162.8 17.2z"/></defs><clipPath id="SVGID_00000178172330676211709850000001981848241090332600_"><use xlink:href="#SVGID_00000124161848105666516350000014700573647441004432_" style="overflow:visible"/></clipPath><g style="clip-path:url(#SVGID_00000178172330676211709850000001981848241090332600_)"><path class="st55" d="m485.8 687.8 1.5-2c3.3-4.7 8.7-7.5 14.5-7.5h533.1"/><path class="st1" d="m852.9 678.4-23 44.4m46.1-44.4-23 44.4m46-44.4-23 44.4"/><path class="st53" d="M504.7 734.9c155.5-63.8 307.3-5.6 307.3-5.6 131.6-60.3 205.4.7 205.4.7l-512.7 4.9z"/></g><path class="st53" d="M1029.6 328.4c2.9 57.4 3.7 115.6 4 173 .1 57.6-.4 115.5-4 173-3.6-57.5-4.2-115.5-4-173 .2-57.5 1-115.6 4-173z"/><path class="st57" d="M1029.6 328.4c-.9-5.4-9.1-4.2-13-3.3-4.8 1.2-9.3 3.6-13.2 6.6-6 4.6-10 10.8-12.9 17.7-3 7-5.4 14.3-7.4 21.7-6.2 23.2-10.6 52.3-14.8 76.2-5.5 30.8-11.7 61.9-23.3 91-.5 1.4-2.1 2-3.4 1.4-2.7-1.1-5.4-2.1-8.2-2.8-19.9-5-41.9 3.2-54.3 19.4-14.7 18.8-13.6 46.8 5 62.6 1.2 1 1.2 3-.1 3.9-14 10.5-29.7 18.5-46 24.5-49.2 17.7-102.9 17-154.2 10.5-34-4.8-67.6-12.4-101.9-14.5-20.2-1.4-40.6-1.8-60.5 1.8-9.1 2-18.8 4.7-25.6 11.3-2.9 3-5.1 6.9-5.3 11.2-.3-4.4 1.5-8.7 4.3-12.1 9-10 22.8-13.2 35.5-15.4 34.4-4.8 69.2-.3 103.3 4.5 17 2.6 33.8 5.9 50.9 7.9 66.4 8.1 140.3 6.7 196.6-33.8l-.1 3.9c-15.5-12.2-21.4-34.2-15.5-52.8 9.5-31.9 48.2-50 78.2-34.6 0 0-3.4 1.4-3.4 1.3 17-49.2 21-101.4 32.5-152 3-12.7 6.9-25.6 12.6-37.5 4.4-9.9 12.5-18.6 22.8-22.4 5.1-1.9 10.6-2.9 16-1.6 2.6.6 5.7 2.5 5.4 5.4z"/></svg>