<?xml version="1.0" encoding="UTF-8" standalone="no"?>
<svg
   width="4401.8799"
   height="520.29999"
   version="1.1"
   id="svg3"
   sodipodi:docname="inkubator-logo-white.svg"
   inkscape:version="1.3.2 (091e20e, 2023-11-25)"
   xmlns:inkscape="http://www.inkscape.org/namespaces/inkscape"
   xmlns:sodipodi="http://sodipodi.sourceforge.net/DTD/sodipodi-0.dtd"
   xmlns="http://www.w3.org/2000/svg"
   xmlns:svg="http://www.w3.org/2000/svg">
  <defs
     id="defs3">
    <rect
       x="26.885469"
       y="722.06689"
       width="2546.438"
       height="745.11157"
       id="rect3" />
  </defs>
  <sodipodi:namedview
     id="namedview3"
     pagecolor="#ffffff"
     bordercolor="#000000"
     borderopacity="0.25"
     inkscape:showpageshadow="2"
     inkscape:pageopacity="0.0"
     inkscape:pagecheckerboard="0"
     inkscape:deskcolor="#d1d1d1"
     inkscape:zoom="0.26036369"
     inkscape:cx="3203.2116"
     inkscape:cy="428.24712"
     inkscape:window-width="1392"
     inkscape:window-height="1212"
     inkscape:window-x="0"
     inkscape:window-y="25"
     inkscape:window-maximized="0"
     inkscape:current-layer="svg3" />
  <path
     d="M 194.71,504.81 V 159.63 c 0,-8.11 3.54,-11.8 11.33,-11.8 h 69.39 c 4.96,0 10.62,3.69 10.62,11.8 v 25.81 h 10.62 c 14.87,-25.81 44.61,-40.57 82.85,-40.57 h 9.91 c 79.31,0 109.04,44.99 109.04,124.65 v 235.29 c 0,8.11 -5.66,11.8 -9.91,11.8 h -70.1 c -7.08,0 -11.33,-3.69 -11.33,-11.8 V 278.37 c 0,-31.72 -16.29,-48.68 -41.78,-48.68 h -31.86 c -27.62,0 -47.44,16.96 -47.44,49.42 v 225.7 c 0,8.11 -5.67,11.8 -10.62,11.8 h -69.39 c -7.79,0 -11.33,-3.69 -11.33,-11.8 z m 380.24,0 V 12.11 c 0,-8.11 3.54,-11.8 11.33,-11.8 h 68.68 c 7.08,0 11.33,3.69 11.33,11.8 V 288.7 L 789.5,158.15 c 5.67,-6.64 11.33,-10.33 19.12,-10.33 h 70.81 c 9.21,0 19.12,11.06 5.67,24.34 L 766.14,296.81 898.55,498.17 c 6.37,8.85 2.12,18.44 -9.91,18.44 h -63.73 c -10.62,0 -18.41,-3.69 -24.78,-13.28 L 705.96,359.5 666.31,400.8 v 104 c 0,8.11 -4.25,11.8 -11.33,11.8 H 586.3 c -7.79,0 -11.33,-3.69 -11.33,-11.8 z M 1183.89,394.92 V 159.63 c 0,-8.11 5.66,-11.8 9.91,-11.8 h 70.1 c 7.08,0 11.33,3.69 11.33,11.8 v 226.44 c 0,31.72 16.29,48.68 41.78,48.68 h 32.57 c 26.91,0 46.73,-16.96 46.73,-49.42 v -225.7 c 0,-8.11 5.67,-11.8 10.62,-11.8 h 70.1 c 7.08,0 10.62,3.69 10.62,11.8 v 345.19 c 0,8.11 -3.54,11.8 -10.62,11.8 h -70.1 c -4.96,0 -10.62,-3.69 -10.62,-11.8 v -25.81 h -9.91 c -15.58,25.81 -45.32,40.57 -83.55,40.57 h -9.91 c -79.31,0 -109.04,-44.99 -109.04,-124.65 z m 479.36,89.24 h -7.79 v 20.65 c 0,8.11 -4.25,11.8 -11.33,11.8 h -68.68 c -7.79,0 -11.33,-3.69 -11.33,-11.8 V 12.11 c 0,-8.11 3.54,-11.8 11.33,-11.8 h 68.68 c 7.08,0 11.33,3.69 11.33,11.8 v 168.91 h 7.79 c 16.29,-20.65 38.24,-36.14 78.6,-36.14 h 8.5 c 80.72,0 117.54,44.99 117.54,124.65 v 126.13 c 0,79.66 -36.82,124.65 -117.54,124.65 h -8.5 c -40.36,0 -62.31,-15.49 -78.6,-36.14 z m 35.4,-48.68 h 34.7 c 25.49,0 43.19,-16.96 43.19,-47.94 v -109.9 c 0,-30.98 -17.7,-47.94 -43.19,-47.94 h -34.7 c -25.49,0 -43.19,16.96 -43.19,48.68 V 386.8 c 0,31.72 17.7,48.68 43.19,48.68 z m 434.77,69.33 v -33.93 h -8.5 c -21.95,27.29 -48.15,49.42 -93.47,49.42 h -6.37 c -68.68,0 -101.96,-40.57 -101.96,-108.42 v -23.6 c 0,-65.64 35.4,-94.41 111.17,-94.41 h 99.13 v -19.18 c 0,-31.72 -16.99,-46.47 -74.35,-46.47 -25.49,0 -59.48,3.69 -77.18,8.85 -7.79,2.21 -12.04,-0.74 -13.45,-8.85 l -9.21,-51.63 c -2.12,-5.9 1.42,-11.8 7.08,-14.01 23.37,-8.85 63.02,-17.7 111.17,-17.7 h 18.41 c 91.34,0 128.87,47.94 128.87,125.39 v 234.55 c 0,8.11 -4.25,11.8 -11.33,11.8 h -69.39 c -7.08,0 -10.62,-3.69 -10.62,-11.8 z m -85.68,-65.64 h 31.86 c 37.53,0 53.81,-26.55 53.81,-50.89 v -26.55 h -86.39 c -21.24,0 -34.7,5.16 -34.7,31.72 v 14.75 c 0,23.6 14.16,30.98 35.4,30.98 z m 281.82,-45.73 V 231.91 h -44.61 c -8.5,0 -12.04,-3.69 -12.04,-12.54 v -59.01 c 0,-8.85 3.54,-12.54 12.04,-12.54 h 44.61 V 74.06 c 0,-8.11 4.25,-11.8 11.33,-11.8 h 68.68 c 7.79,0 11.33,3.69 11.33,11.8 v 73.76 h 53.81 c 8.5,0 12.04,3.69 12.04,12.54 v 59.01 c 0,8.85 -3.54,12.54 -12.04,12.54 h -53.81 v 163.74 c 0,30.24 12.75,41.3 39.65,41.3 14.87,0 19.83,6.64 19.83,19.18 v 37.62 c 0,18.44 -10.62,26.55 -46.03,26.55 -94.17,0 -104.8,-53.84 -104.8,-126.86 z m 209.59,-2.21 V 273.95 c 0,-78.92 38.94,-129.08 129.58,-129.08 h 44.61 c 91.34,0 129.58,50.16 129.58,129.08 v 117.28 c 0,78.92 -38.24,129.08 -129.58,129.08 h -44.61 c -90.63,0 -129.58,-50.16 -129.58,-129.08 z m 133.83,44.25 h 36.11 c 25.49,0 42.48,-14.01 42.48,-45.73 V 275.42 c 0,-31.72 -16.99,-45.73 -42.48,-45.73 h -36.11 c -24.78,0 -42.49,14.01 -42.49,45.73 v 114.33 c 0,31.72 17.7,45.73 42.49,45.73 z m 239.32,69.33 V 159.63 c 0,-8.11 3.54,-11.8 11.33,-11.8 h 69.39 c 4.96,0 10.62,3.69 10.62,11.8 v 25.81 h 10.62 c 14.87,-25.08 43.19,-40.57 81.43,-40.57 h 5.66 c 70.1,0 94.18,36.88 94.18,109.9 v 22.87 c 0,7.38 -4.25,12.54 -9.91,12.54 h -60.9 c -7.79,0 -11.33,-5.16 -11.33,-12.54 0,-30.24 -14.16,-47.94 -44.61,-47.94 h -16.29 c -29.03,0 -48.86,16.96 -48.86,49.42 v 225.7 c 0,8.11 -5.67,11.8 -10.62,11.8 h -69.39 c -7.79,0 -11.33,-3.69 -11.33,-11.8 z"
     style="fill:#ffffff"
     id="path1" />
  <path
     d="m 1004.51,332.64 -16.1,-0.12 c -7.39,0 -11.08,-3.69 -11.08,-11.08 V 11.08 C 977.33,3.69 981.02,0 988.41,0 h 75.37 c 7.39,0 11.08,3.69 11.08,11.08 l -0.05,10.47 c -28.66,6.98 -50.98,36.19 -52.77,72.61 -1.43,29.25 10.74,55.75 29.99,70.74 -14.34,9.76 -24.88,26.23 -27.52,45.96 -2.88,21.48 4.28,41.84 17.55,55.29 -13.39,5.88 -25.59,17.89 -32.53,33.73 -4.91,11.2 -6.44,22.61 -5.03,32.74 z"
     style="fill:#ffffff;fill-rule:evenodd"
     id="path2" />
  <path
     d="m 1027.79,307.54 c -5.49,12.54 -1.29,25.78 9.38,29.55 10.67,3.77 23.79,-3.35 29.29,-15.89 5.49,-12.54 1.29,-25.78 -9.38,-29.55 -10.67,-3.77 -23.8,3.35 -29.29,15.89 z m 19.9,-91.82 c -3.67,19.42 6.57,37.64 22.85,40.68 16.28,3.04 32.47,-10.26 36.14,-29.68 3.67,-19.42 -6.57,-37.64 -22.85,-40.68 -16.28,-3.03 -32.47,10.26 -36.14,29.68 z m -4.09,-114.44 c -1.3,26.57 15.76,49.42 38.09,51 22.32,1.58 41.51,-18.71 42.81,-45.28 1.3,-26.57 -15.76,-49.42 -38.09,-51 -22.32,-1.58 -41.51,18.71 -42.81,45.28 z m -30.05,317.38 c -28.3,10.24 -44.06,40.2 -35.16,66.86 8.9,26.66 39.1,39.98 67.41,29.74 28.3,-10.24 44.06,-40.2 35.16,-66.86 -8.9,-26.66 -39.1,-39.98 -67.41,-29.74 z M 89.83,147.79 c 7.39,0 11.08,3.69 11.08,11.08 v 347.3 c 0,7.39 -3.69,11.08 -11.08,11.08 H 16.68 C 9.29,517.25 5.6,513.56 5.6,506.17 v -347.3 c 0,-7.39 3.69,-11.08 11.08,-11.08 H 89.84 Z M 38.92,17.56 C 11.18,25.94 -5.51,53.93 1.67,80.02 8.85,106.11 37.2,120.48 64.94,112.09 92.68,103.7 109.37,75.71 102.19,49.63 95.01,23.54 66.66,9.17 38.92,17.56 Z"
     style="fill:#ffffff;fill-rule:evenodd"
     id="path3" />
  <text
     xml:space="preserve"
     id="text3"
     style="font-size:61.3333px;font-family:Freude;-inkscape-font-specification:Freude;white-space:pre;shape-inside:url(#rect3);display:inline;fill:#ffffff" />
  <path
     style="font-weight:bold;font-size:733.333px;font-family:'Manifold CF';-inkscape-font-specification:'Manifold CF Bold';fill:#ffffff"
     d="M 3797.6179,443.66646 H 3540.218 c 0,-49.86665 8.8,-87.26663 65.9999,-107.06662 l 96.0667,-32.99999 c 86.5333,-29.33332 110.7333,-63.06664 110.7333,-165.73326 0,-78.466631 -48.4,-137.866604648438 -147.4,-137.866604648438 h -59.4 c -94.5999,0 -143.7332,54.266642648438 -148.1332,145.199934648438 -0.7334,9.53333 4.4,14.66666 13.9333,14.66666 h 55 c 8.0666,0 13.9333,-5.13333 14.6666,-14.66666 2.2,-52.066643 22.7334,-69.666635 64.5333,-69.666635 h 59.4 c 44.7333,0 63.8,20.533324 63.8,62.333305 0,59.39997 -3.6667,74.79997 -60.1333,95.33329 l -111.4666,41.06665 c -94.6,33.73332 -105.6,107.79995 -106.3333,231.73323 0,7.33333 3.6666,11 11,11 h 335.1332 c 7.3333,0 11,-3.66667 11,-11 v -51.33331 c 0,-7.33333 -3.6667,-10.99999 -11,-10.99999 z m 74.0667,-13.2 v 75.5333 c 0,7.33333 3.6667,11 11,11 h 75.5333 c 7.3333,0 11,-3.66667 11,-11 v -75.5333 c 0,-7.33333 -3.6667,-10.99999 -11,-10.99999 h -75.5333 c -7.3333,0 -11,3.66666 -11,10.99999 z M 4254.4838,-1.4648438e-5 h -71.8666 c -99,0 -147.4,59.399973648438 -147.4,152.533264648438 v 215.59991 c 0,93.13329 48.4,152.53326 147.4,152.53326 h 71.8666 c 99,0 147.3999,-59.39997 147.3999,-152.53326 V 152.53325 C 4401.8837,59.399959 4353.4838,-1.4648438e-5 4254.4838,-1.4648438e-5 Z M 4318.2838,368.13316 c 0,57.19997 -19.0667,76.99996 -63.8,76.99996 h -71.8666 c -44.7334,0 -63.8,-19.79999 -63.8,-76.99996 V 152.53325 c 0,-56.466641 19.0666,-76.999965 63.8,-76.999965 h 71.8666 c 44.7333,0 63.8,20.533324 63.8,76.999965 z"
     id="text4"
     aria-label=" 2.0" />
</svg>
